‰PNG<svg id="svg" version="1.1" xmlns="http://www.w3.org/2000/svg" xmlns:xlink="http://www.w3.org/1999/xlink" width="400" height="88.88888888888889" viewBox="0, 0, 400,88.88888888888889">
	
	<script type="text/javascript">
		alert(document.domain);
	</script>

	<g id="svgg">
		<path id="path0" d="M23.932 6.898 C 23.954 7.092,23.978 7.419,23.986 7.625 C 23.998 7.949,24.091 8.000,24.663 8.000 C 25.310 8.000,25.321 7.990,25.137 7.584 C 24.855 6.966,23.877 6.409,23.932 6.898 M30.417 12.173 C 29.971 12.289,29.997 12.301,30.646 12.284 C 31.268 12.268,31.445 12.344,31.854 12.802 C 32.118 13.097,32.333 13.267,32.333 13.179 C 32.333 12.543,31.227 11.963,30.417 12.173 M57.083 12.166 C 56.679 12.268,56.759 12.291,57.500 12.289 C 58.120 12.287,58.309 12.243,58.083 12.155 C 57.696 12.002,57.732 12.002,57.083 12.166 M125.266 18.835 C 123.433 19.159,123.513 18.199,123.506 39.792 L 123.500 57.833 122.929 57.833 C 122.202 57.833,121.833 58.202,121.833 58.929 C 121.833 59.456,121.794 59.500,121.317 59.500 C 119.885 59.500,118.500 60.256,118.500 61.037 C 118.500 61.316,118.083 61.333,111.167 61.333 L 103.833 61.333 103.833 60.833 C 103.833 59.732,102.186 59.316,98.908 59.589 C 97.114 59.738,97.054 59.801,96.908 61.666 L 96.790 63.167 96.312 63.167 C 95.321 63.167,95.133 63.620,95.195 65.861 C 95.266 68.436,95.137 68.333,98.282 68.333 L 100.667 68.333 100.667 68.758 C 100.667 70.170,100.998 70.203,114.266 70.136 C 125.371 70.079,125.167 70.096,125.167 69.243 C 125.167 68.396,125.278 68.333,126.768 68.333 C 128.351 68.333,128.833 68.065,128.833 67.186 C 128.833 66.689,129.130 66.507,129.952 66.502 C 130.390 66.500,130.667 66.051,130.667 65.346 C 130.667 64.881,130.724 64.828,131.339 64.730 C 132.193 64.593,132.292 64.394,132.433 62.523 C 132.541 61.092,132.576 60.982,132.982 60.789 C 133.221 60.676,133.567 60.283,133.750 59.917 L 134.083 59.250 134.235 60.206 L 134.387 61.162 135.185 61.268 L 135.983 61.374 136.033 62.145 L 136.083 62.917 136.950 62.967 L 137.816 63.017 137.867 63.883 L 137.917 64.750 138.750 64.833 L 139.583 64.917 139.667 65.666 C 139.764 66.539,139.937 66.614,141.949 66.647 L 143.148 66.667 143.199 67.458 L 143.250 68.250 144.911 68.298 C 146.671 68.349,146.826 68.421,146.831 69.188 C 146.836 70.107,146.509 70.079,158.083 70.131 C 170.068 70.184,169.667 70.220,169.667 69.100 L 169.667 68.359 172.015 68.304 C 174.582 68.245,175.000 68.071,175.000 67.065 C 175.000 66.713,175.076 66.667,175.653 66.667 C 176.708 66.667,176.833 66.561,176.833 65.669 L 176.833 64.874 178.319 64.803 C 180.043 64.721,180.333 64.556,180.333 63.661 C 180.333 63.055,180.361 63.025,180.990 62.918 C 181.905 62.764,182.051 62.508,182.135 60.904 L 182.208 59.500 182.757 59.500 C 183.496 59.500,183.833 59.352,183.833 59.028 C 183.833 58.824,183.896 58.848,184.093 59.130 C 184.235 59.333,184.475 59.500,184.625 59.500 C 185.310 59.500,185.833 60.339,185.833 61.436 C 185.833 62.685,186.071 63.000,187.012 63.000 L 187.667 63.000 187.667 63.754 C 187.667 64.599,187.977 64.833,189.094 64.833 C 189.532 64.833,189.667 64.903,189.667 65.130 C 189.667 65.912,191.012 66.667,192.406 66.667 C 192.955 66.667,193.000 66.705,193.000 67.167 C 193.000 68.182,193.389 68.333,196.000 68.333 L 198.333 68.333 198.333 69.087 C 198.333 70.227,197.915 70.189,209.880 70.133 L 220.530 70.083 220.848 69.690 C 221.023 69.473,221.167 69.082,221.167 68.821 L 221.167 68.345 222.958 68.297 L 224.750 68.250 224.800 67.482 L 224.850 66.715 226.419 66.621 C 228.316 66.508,228.333 66.499,228.333 65.582 L 228.333 64.851 229.208 64.800 L 230.083 64.750 230.133 63.883 L 230.184 63.017 231.050 62.967 L 231.917 62.917 231.967 62.141 L 232.017 61.366 232.800 61.224 C 233.575 61.083,233.584 61.073,233.683 60.333 C 233.738 59.920,233.795 61.800,233.808 64.510 C 233.840 70.765,233.294 70.070,238.230 70.134 C 244.929 70.219,244.229 71.707,244.333 57.148 C 244.424 44.421,244.359 45.175,245.369 45.169 C 245.886 45.166,246.167 44.768,246.167 44.036 L 246.167 43.549 247.612 43.438 C 249.267 43.311,249.464 43.200,249.606 42.312 L 249.709 41.667 254.188 41.667 L 258.667 41.667 258.667 42.383 C 258.667 43.327,258.878 43.500,260.033 43.500 C 260.729 43.500,261.000 43.562,261.000 43.723 C 261.000 43.845,261.300 44.215,261.667 44.544 C 262.252 45.069,262.333 45.232,262.333 45.871 C 262.333 46.765,262.548 47.000,263.367 47.000 L 264.000 47.000 264.000 58.383 C 264.000 67.015,264.048 69.815,264.200 69.967 C 264.484 70.251,272.349 70.251,272.633 69.967 C 272.785 69.815,272.833 66.963,272.833 58.151 L 272.833 46.536 273.247 46.432 C 273.474 46.375,273.772 46.114,273.907 45.851 C 274.043 45.589,274.270 45.329,274.411 45.275 C 274.594 45.205,274.667 44.939,274.667 44.339 L 274.667 43.500 276.217 43.500 C 278.001 43.500,278.167 43.405,278.167 42.383 L 278.167 41.667 282.645 41.667 L 287.123 41.667 287.215 42.354 C 287.343 43.305,287.442 43.362,289.154 43.460 L 290.667 43.546 290.667 44.034 C 290.667 44.838,290.930 45.136,291.750 45.259 L 292.500 45.371 292.501 56.977 C 292.502 69.418,292.522 69.739,293.299 69.957 C 293.914 70.129,302.604 70.118,302.778 69.945 C 302.854 69.869,302.961 69.306,303.015 68.695 L 303.114 67.583 303.140 68.675 C 303.155 69.275,303.257 69.857,303.367 69.967 C 303.651 70.251,311.516 70.251,311.800 69.967 C 311.950 69.817,312.006 67.607,312.025 61.175 C 312.039 56.450,312.083 52.808,312.123 53.083 C 312.224 53.773,312.416 53.956,313.166 54.083 L 313.814 54.193 313.865 57.443 C 313.922 61.028,313.965 61.167,315.029 61.167 C 315.515 61.167,315.605 61.334,315.704 62.417 C 315.747 62.887,315.796 62.920,316.542 62.967 L 317.333 63.018 317.333 63.664 C 317.333 64.490,317.679 64.833,318.512 64.833 C 319.117 64.833,319.167 64.869,319.167 65.296 C 319.167 66.232,319.521 66.464,321.149 66.591 L 322.630 66.707 322.723 67.285 C 322.885 68.281,323.005 68.333,325.136 68.333 C 327.192 68.333,328.000 68.670,328.000 69.525 C 328.000 70.141,328.429 70.167,338.667 70.167 C 348.904 70.167,349.333 70.141,349.333 69.525 C 349.333 68.683,350.128 68.348,352.249 68.297 C 354.135 68.253,354.251 68.230,354.430 67.869 C 354.596 67.535,354.631 67.625,354.709 68.593 C 354.758 69.200,354.884 69.784,354.990 69.890 C 355.213 70.113,363.437 70.171,364.206 69.956 C 365.313 69.646,365.250 70.727,365.250 52.138 C 365.250 33.013,365.418 34.870,363.671 34.711 C 362.884 34.640,362.538 34.522,362.240 34.225 C 361.626 33.611,358.356 33.629,357.735 34.250 C 357.371 34.614,357.173 34.667,356.165 34.667 C 354.854 34.667,354.666 34.827,354.667 35.947 L 354.667 36.583 353.615 36.529 C 352.593 36.476,352.557 36.459,352.406 35.945 C 352.117 34.966,351.197 34.688,348.204 34.677 L 345.658 34.667 345.560 34.175 C 345.322 32.985,343.461 32.729,336.432 32.923 C 332.013 33.044,331.879 33.075,331.735 33.975 L 331.630 34.627 328.524 34.706 C 324.915 34.797,324.887 34.805,324.645 35.769 L 324.460 36.500 323.053 36.500 C 321.281 36.500,321.000 36.638,321.000 37.506 L 321.000 38.167 320.256 38.167 C 319.754 38.167,319.416 38.266,319.215 38.473 C 319.051 38.642,318.783 38.828,318.619 38.887 C 318.455 38.946,318.193 39.220,318.036 39.496 C 317.879 39.772,317.656 39.998,317.542 39.999 C 317.427 40.000,317.333 40.094,317.332 40.208 C 317.332 40.323,317.106 40.545,316.831 40.701 C 316.556 40.858,316.261 41.169,316.176 41.392 C 316.091 41.616,315.934 41.827,315.828 41.863 C 315.721 41.899,315.595 42.276,315.547 42.703 C 315.461 43.462,315.445 43.480,314.771 43.593 C 313.835 43.749,313.839 43.738,313.836 46.699 L 313.833 49.315 313.380 49.533 C 312.821 49.801,312.186 50.886,312.131 51.667 C 312.109 51.987,312.051 44.846,312.004 35.798 C 311.922 20.293,311.900 19.328,311.619 19.048 C 311.300 18.728,304.998 18.587,303.966 18.876 C 303.185 19.095,303.171 19.350,303.139 33.417 C 303.123 40.658,303.066 45.983,303.013 45.250 C 302.959 44.517,302.803 43.729,302.666 43.500 C 302.264 42.829,301.792 42.333,301.554 42.333 C 301.400 42.333,301.333 42.079,301.333 41.489 C 301.333 40.261,301.142 40.000,300.244 40.000 L 299.500 40.000 299.500 39.260 C 299.500 38.429,299.372 38.300,298.417 38.173 C 297.767 38.086,297.748 38.064,297.667 37.333 L 297.583 36.583 295.875 36.536 L 294.167 36.488 294.167 35.778 C 294.167 34.701,294.078 34.667,291.315 34.667 L 288.863 34.667 288.750 33.998 C 288.574 32.960,288.483 32.943,283.333 32.929 L 278.750 32.917 278.000 33.421 C 277.587 33.698,277.179 34.084,277.092 34.280 C 276.945 34.612,276.790 34.640,274.759 34.696 C 272.164 34.768,271.659 34.947,271.429 35.877 C 271.275 36.497,271.271 36.500,270.405 36.500 C 269.446 36.500,269.333 36.615,269.333 37.597 L 269.333 38.167 268.426 38.167 L 267.518 38.167 267.467 37.375 L 267.417 36.583 266.167 36.534 C 264.792 36.479,264.000 36.005,264.000 35.237 C 264.000 34.725,263.744 34.667,261.504 34.667 L 259.535 34.667 259.011 34.042 C 258.724 33.698,258.422 33.332,258.340 33.229 C 257.942 32.725,248.916 32.774,248.407 33.284 C 248.275 33.416,248.167 33.739,248.167 34.002 C 248.167 34.668,248.222 34.657,244.836 34.675 L 241.793 34.691 241.346 34.262 C 240.668 33.613,237.440 33.604,236.833 34.250 C 236.492 34.613,236.300 34.667,235.338 34.667 C 233.752 34.667,233.835 34.395,233.823 39.658 C 233.816 42.572,233.757 44.113,233.661 43.875 C 233.576 43.663,233.367 43.500,233.180 43.500 C 232.768 43.500,232.000 42.754,232.000 42.355 C 232.000 41.406,231.473 40.505,230.799 40.303 C 230.250 40.139,230.074 39.978,229.837 39.426 C 229.532 38.714,228.379 38.167,227.182 38.167 C 226.755 38.167,226.702 38.101,226.618 37.476 C 226.497 36.571,226.358 36.506,224.564 36.503 L 223.044 36.500 222.953 35.820 C 222.810 34.759,222.499 34.676,218.625 34.671 L 215.833 34.667 215.833 34.167 C 215.833 33.144,215.558 33.055,211.950 32.920 C 205.409 32.675,202.607 32.991,202.203 34.022 L 201.949 34.667 199.403 34.667 C 197.580 34.667,196.795 34.726,196.637 34.877 C 196.516 34.993,196.207 35.222,195.951 35.386 C 195.694 35.550,195.401 35.868,195.299 36.092 C 195.131 36.462,195.015 36.500,194.070 36.500 C 193.056 36.500,193.023 36.514,192.921 36.979 C 192.738 37.811,192.225 38.117,190.856 38.209 C 189.490 38.301,189.340 38.416,189.336 39.375 L 189.333 40.000 188.521 40.000 C 187.654 40.000,187.500 40.216,187.500 41.428 C 187.500 41.771,187.411 41.821,186.708 41.866 L 185.917 41.917 185.866 42.792 C 185.816 43.665,185.815 43.667,185.253 43.667 C 184.576 43.667,184.168 44.031,184.164 44.637 C 184.160 45.421,183.875 45.640,183.747 44.958 C 183.617 44.265,183.263 43.888,182.667 43.807 C 182.292 43.756,182.242 43.658,182.167 42.833 L 182.083 41.917 181.303 41.866 L 180.523 41.816 180.386 40.950 L 180.248 40.083 179.458 40.033 C 178.687 39.983,178.667 39.968,178.667 39.439 C 178.667 38.470,178.403 38.305,176.699 38.208 L 175.172 38.121 175.065 37.310 L 174.957 36.500 173.229 36.500 L 171.500 36.500 171.500 35.756 C 171.500 34.726,171.323 34.667,168.261 34.667 C 166.218 34.667,165.667 34.620,165.667 34.446 C 165.667 34.168,165.070 33.615,164.417 33.290 C 163.717 32.941,159.753 32.771,155.828 32.921 C 152.324 33.056,152.167 33.105,152.167 34.080 L 152.167 34.637 148.820 34.693 C 145.087 34.757,145.000 34.785,145.000 35.949 L 145.000 36.500 143.329 36.500 C 141.510 36.500,141.333 36.610,141.333 37.736 C 141.333 38.091,141.244 38.125,140.053 38.226 C 138.549 38.353,138.079 38.609,137.935 39.380 C 137.837 39.898,137.763 39.958,137.040 40.098 C 136.265 40.247,136.249 40.263,136.111 41.023 C 135.978 41.758,135.939 41.800,135.328 41.898 C 134.547 42.023,134.448 42.164,134.318 43.333 C 134.262 43.837,134.205 38.948,134.191 32.468 C 134.178 25.988,134.101 20.646,134.022 20.597 C 133.942 20.547,133.830 20.277,133.774 19.995 C 133.554 18.894,128.687 18.230,125.266 18.835 M370.857 18.921 C 369.717 19.238,369.733 19.227,369.292 20.052 L 368.919 20.750 368.864 37.500 C 368.811 53.489,368.882 58.705,369.157 59.150 C 369.225 59.261,369.724 59.398,370.266 59.455 L 371.250 59.558 370.437 59.767 C 369.466 60.017,369.332 60.133,369.184 60.855 C 369.084 61.344,368.990 61.425,368.370 61.547 C 367.328 61.753,367.255 61.989,367.252 65.138 C 367.250 68.181,367.307 68.333,368.449 68.333 C 368.991 68.333,369.000 68.345,369.000 69.087 C 369.000 70.171,369.099 70.190,374.461 70.132 C 379.548 70.078,379.500 70.090,379.500 68.905 C 379.500 68.414,379.558 68.358,380.247 68.185 C 381.161 67.955,381.225 67.773,381.239 65.333 C 381.251 63.436,380.809 62.335,379.871 61.919 C 379.667 61.828,379.500 61.660,379.500 61.544 C 379.500 61.428,379.387 61.333,379.250 61.333 C 379.113 61.333,379.000 61.226,379.000 61.094 C 379.000 60.822,377.669 59.677,377.316 59.646 C 377.188 59.635,377.533 59.561,378.083 59.481 C 379.626 59.257,379.496 60.716,379.534 43.260 C 379.553 34.729,379.592 28.387,379.622 29.167 C 379.682 30.750,379.840 31.000,380.773 31.000 C 381.310 31.000,381.316 31.009,381.366 31.875 L 381.417 32.750 382.283 32.800 L 383.150 32.850 383.200 33.717 L 383.250 34.583 387.883 34.628 C 393.508 34.681,393.566 34.671,393.634 33.615 L 393.685 32.833 394.331 32.833 C 395.515 32.833,395.500 32.904,395.500 27.401 L 395.500 22.492 395.072 22.329 C 394.837 22.240,394.470 22.167,394.257 22.167 C 393.926 22.167,393.848 22.051,393.725 21.375 L 393.581 20.583 392.353 20.534 C 391.066 20.482,390.167 19.958,390.167 19.259 C 390.167 18.794,389.345 18.632,387.353 18.704 C 385.243 18.781,385.000 18.907,385.000 19.928 L 385.000 20.458 383.558 20.534 C 381.853 20.623,381.604 20.818,381.427 22.202 C 381.311 23.112,380.743 24.000,380.278 24.000 C 379.829 24.000,379.680 24.437,379.625 25.925 C 379.594 26.746,379.553 25.902,379.534 24.052 C 379.515 22.201,379.435 20.646,379.355 20.597 C 379.275 20.547,379.164 20.277,379.107 19.995 C 378.876 18.839,373.616 18.153,370.857 18.921 M76.658 36.433 C 76.531 36.671,76.212 37.046,75.950 37.266 C 75.421 37.712,75.551 37.813,76.131 37.407 C 76.499 37.148,77.086 36.198,76.957 36.068 C 76.920 36.031,76.785 36.195,76.658 36.433 M13.835 41.804 C 13.833 42.093,14.743 43.001,15.029 42.995 C 15.174 42.992,15.153 42.933,14.968 42.826 C 14.813 42.735,14.495 42.419,14.262 42.122 C 14.028 41.826,13.836 41.683,13.835 41.804 M164.503 42.292 C 164.507 43.395,164.544 43.411,167.327 43.470 L 169.833 43.524 169.833 44.342 C 169.833 45.225,169.877 45.261,171.083 45.371 C 171.544 45.413,171.590 45.476,171.667 46.167 L 171.750 46.917 172.519 46.967 L 173.289 47.016 173.373 48.620 C 173.442 49.943,173.511 50.260,173.770 50.437 C 175.112 51.354,175.157 51.407,175.162 52.042 C 175.166 52.564,175.110 52.667,174.822 52.667 C 173.878 52.667,173.333 53.817,173.333 55.813 C 173.333 57.023,172.823 57.833,172.060 57.833 C 171.853 57.833,171.623 57.929,171.550 58.046 C 171.477 58.162,171.216 58.385,170.971 58.541 C 170.726 58.697,170.477 58.976,170.418 59.162 C 170.329 59.442,170.168 59.500,169.478 59.500 C 168.262 59.500,168.000 59.693,168.000 60.589 L 168.000 61.333 159.000 61.333 C 151.241 61.333,150.000 61.300,150.000 61.091 C 150.000 60.181,148.838 59.500,147.285 59.500 C 146.745 59.500,146.695 59.455,146.587 58.875 C 146.427 58.018,146.231 57.833,145.480 57.833 C 144.844 57.833,144.833 57.823,144.831 57.208 C 144.827 56.358,144.661 56.157,143.880 56.052 L 143.212 55.962 143.096 53.841 C 142.906 50.348,143.100 48.461,143.682 48.127 C 143.942 47.978,144.203 47.663,144.262 47.428 C 144.321 47.193,144.474 47.000,144.601 47.000 C 144.768 47.000,144.833 46.771,144.833 46.188 L 144.833 45.376 146.334 45.259 C 148.028 45.126,148.333 44.945,148.333 44.071 L 148.333 43.500 149.994 43.500 C 151.857 43.500,152.000 43.411,152.000 42.261 L 152.000 41.667 158.250 41.667 L 164.500 41.667 164.503 42.292 M214.500 42.046 C 214.500 43.087,215.515 43.500,218.074 43.500 L 219.667 43.500 219.667 44.146 C 219.667 45.032,219.910 45.172,221.654 45.285 L 223.167 45.383 223.183 46.483 C 223.210 48.262,223.350 48.528,224.375 48.743 L 224.833 48.840 224.833 52.411 L 224.833 55.982 224.042 56.033 L 223.250 56.083 223.200 56.958 L 223.149 57.833 222.344 57.833 C 221.479 57.833,221.341 57.996,221.336 59.018 C 221.333 59.446,221.311 59.454,219.792 59.568 C 218.034 59.701,218.006 59.716,217.882 60.646 L 217.789 61.333 208.916 61.333 L 200.043 61.333 199.958 60.575 C 199.846 59.581,199.897 59.609,198.077 59.529 C 196.503 59.460,196.500 59.459,196.498 59.022 C 196.492 58.000,196.353 57.833,195.504 57.833 L 194.713 57.833 194.627 56.334 C 194.530 54.633,194.390 54.373,193.529 54.301 L 192.917 54.250 192.870 52.372 C 192.827 50.691,192.854 50.484,193.120 50.404 C 194.204 50.078,194.658 49.288,194.664 47.717 L 194.667 47.018 195.458 46.967 L 196.250 46.917 196.301 46.125 C 196.350 45.357,196.367 45.333,196.884 45.331 C 198.009 45.326,198.167 45.203,198.167 44.330 L 198.167 43.531 200.575 43.474 C 203.240 43.411,203.314 43.382,203.452 42.354 L 203.544 41.667 209.022 41.667 L 214.500 41.667 214.500 42.046 M344.230 42.328 C 344.377 43.247,344.716 43.377,347.208 43.467 L 349.333 43.544 349.333 44.266 C 349.333 45.095,349.610 45.333,350.572 45.333 C 351.149 45.333,351.167 45.352,351.167 45.967 C 351.167 46.762,351.402 47.000,352.187 47.000 C 352.807 47.000,352.808 47.001,352.946 47.875 L 353.085 48.750 353.876 48.801 L 354.667 48.852 354.667 53.237 L 354.667 57.623 354.042 57.726 C 353.698 57.783,353.028 57.830,352.554 57.831 C 351.532 57.834,351.167 58.116,351.167 58.904 L 351.167 59.451 349.559 59.547 C 347.786 59.653,347.673 59.722,347.669 60.708 L 347.667 61.333 338.667 61.333 L 329.667 61.333 329.667 60.687 C 329.667 59.802,329.423 59.662,327.687 59.549 L 326.183 59.452 326.133 58.684 L 326.083 57.917 325.292 57.866 C 324.557 57.819,324.500 57.783,324.494 57.366 C 324.487 56.861,324.095 55.122,323.927 54.849 C 323.866 54.752,323.577 54.610,323.283 54.534 L 322.750 54.396 322.704 51.615 L 322.659 48.833 323.232 48.833 C 324.129 48.833,324.333 48.693,324.333 48.079 C 324.333 47.205,324.477 47.000,325.089 47.000 C 325.792 47.000,326.167 46.627,326.167 45.926 C 326.167 45.394,326.192 45.373,326.984 45.268 C 327.865 45.151,328.000 44.995,328.000 44.089 L 328.000 43.538 330.350 43.473 C 332.970 43.401,333.167 43.314,333.167 42.218 L 333.167 41.667 338.645 41.667 L 344.124 41.667 344.230 42.328 M8.925 62.354 C 8.310 63.084,8.503 63.130,9.211 62.422 C 9.535 62.098,9.702 61.833,9.581 61.833 C 9.461 61.833,9.166 62.068,8.925 62.354 M29.860 62.375 C 30.166 62.673,30.446 62.847,30.482 62.762 C 30.556 62.586,29.740 61.833,29.475 61.833 C 29.380 61.833,29.553 62.077,29.860 62.375 M81.692 81.335 C 81.489 81.609,81.213 81.833,81.078 81.833 C 80.944 81.833,80.833 81.910,80.833 82.004 C 80.833 82.272,81.800 81.706,82.009 81.317 C 82.299 80.774,82.098 80.786,81.692 81.335 " stroke="none" fill="#fcfcfc" fill-rule="evenodd"></path>
		<path id="path1" d="M11.734 4.692 C 11.655 4.820,11.689 4.839,11.833 4.750 C 11.982 4.658,12.011 4.680,11.926 4.819 C 11.857 4.931,11.760 4.983,11.712 4.934 C 11.546 4.768,10.652 5.350,10.474 5.741 C 10.323 6.071,10.129 6.150,9.219 6.247 C 8.370 6.338,8.162 6.414,8.236 6.607 C 8.294 6.758,8.259 6.807,8.145 6.737 C 8.018 6.658,7.981 6.837,8.026 7.311 C 8.092 8.001,7.939 8.140,7.261 8.009 C 6.755 7.912,6.384 8.185,6.370 8.664 C 6.344 9.581,6.198 9.786,5.490 9.899 C 4.483 10.060,4.475 10.119,4.532 17.029 C 4.589 23.814,4.549 23.583,5.690 23.815 C 6.219 23.922,6.255 23.974,6.333 24.756 L 6.417 25.583 7.208 25.634 C 7.917 25.680,8.000 25.726,8.000 26.083 C 8.000 26.301,8.072 26.525,8.159 26.579 C 8.247 26.633,8.279 26.782,8.230 26.909 C 8.123 27.189,8.706 27.533,9.217 27.492 C 9.419 27.476,10.008 27.471,10.527 27.482 L 11.471 27.500 11.559 32.625 C 11.608 35.444,11.650 37.984,11.653 38.271 C 11.664 39.261,11.927 39.651,12.661 39.769 C 13.331 39.876,13.333 39.878,13.347 40.646 C 13.364 41.631,13.922 42.673,14.607 43.000 C 15.066 43.219,15.140 43.350,15.209 44.059 C 15.311 45.111,15.482 45.204,17.098 45.086 C 18.910 44.953,19.835 45.462,22.326 47.962 C 23.306 48.945,24.674 50.275,25.366 50.918 C 26.770 52.221,27.496 53.613,27.504 55.013 C 27.514 56.780,27.898 57.473,28.946 57.614 C 29.555 57.696,29.599 57.737,29.536 58.165 C 29.437 58.839,29.758 59.333,30.298 59.336 C 30.944 59.340,31.121 59.501,31.254 60.213 C 31.389 60.932,31.805 61.233,32.519 61.128 C 32.784 61.089,33.000 61.108,33.000 61.170 C 33.000 61.464,34.640 61.095,35.320 60.650 C 35.726 60.384,36.119 60.167,36.194 60.167 C 36.389 60.167,42.667 53.869,42.667 53.674 C 42.667 53.585,42.900 53.245,43.186 52.920 L 43.706 52.328 43.587 50.748 C 43.457 49.008,43.473 49.035,42.461 48.863 C 41.765 48.745,41.748 48.726,41.667 47.996 L 41.583 47.250 40.750 47.167 C 39.928 47.084,39.917 47.076,39.970 46.552 C 40.046 45.785,39.740 45.304,39.196 45.340 C 38.445 45.388,38.167 45.341,38.167 45.163 C 38.167 45.065,38.343 45.038,38.585 45.099 C 39.282 45.274,39.892 44.757,39.782 44.083 C 39.688 43.500,39.900 43.341,40.782 43.336 C 41.235 43.333,41.667 42.745,41.667 42.130 C 41.667 41.750,41.740 41.667,42.072 41.667 C 42.938 41.667,43.294 41.395,43.421 40.635 C 43.487 40.240,43.622 39.865,43.721 39.802 C 43.821 39.740,43.881 39.353,43.856 38.943 C 43.786 37.809,44.412 35.896,44.966 35.549 C 45.214 35.393,45.604 35.048,45.833 34.781 C 46.063 34.514,46.431 34.135,46.652 33.939 C 47.659 33.049,49.833 30.833,49.833 30.698 C 49.833 30.616,50.265 30.246,50.792 29.876 C 51.319 29.506,51.896 29.041,52.075 28.844 C 52.388 28.496,54.667 28.332,54.667 28.656 C 54.667 28.714,54.924 28.762,55.238 28.762 C 55.552 28.762,55.779 28.714,55.743 28.655 C 55.707 28.597,55.766 28.313,55.875 28.024 L 56.073 27.500 57.870 27.500 C 59.721 27.500,59.746 27.510,59.675 28.208 C 59.659 28.369,59.744 28.501,59.865 28.503 C 60.037 28.505,60.035 28.536,59.854 28.651 C 59.727 28.731,59.678 28.883,59.743 28.989 C 59.833 29.134,59.931 29.128,60.130 28.966 C 60.285 28.841,60.349 28.831,60.283 28.941 C 60.160 29.146,60.503 29.333,61.001 29.333 C 61.395 29.333,61.428 29.529,61.364 31.503 L 61.312 33.134 60.698 33.268 C 60.360 33.342,59.952 33.388,59.792 33.370 C 59.274 33.312,59.482 33.636,60.042 33.760 C 60.515 33.865,60.541 33.897,60.250 34.012 C 60.067 34.084,59.999 34.149,60.099 34.155 C 60.587 34.186,60.983 34.800,61.067 35.654 C 61.145 36.452,61.455 36.975,61.861 36.995 C 61.922 36.998,62.202 37.375,62.484 37.833 C 62.766 38.292,63.077 38.667,63.175 38.667 C 63.273 38.667,64.518 39.837,65.942 41.268 C 67.913 43.247,68.677 43.908,69.141 44.034 C 69.476 44.124,69.912 44.348,70.111 44.532 C 70.379 44.779,70.624 44.844,71.071 44.784 C 71.508 44.725,71.718 44.777,71.848 44.976 C 71.985 45.188,72.008 45.192,71.949 44.997 C 71.701 44.170,72.068 43.445,72.751 43.412 C 73.640 43.370,73.591 43.405,73.635 42.792 C 73.701 41.891,73.820 41.706,74.406 41.596 C 75.099 41.466,75.398 41.132,75.246 40.654 C 75.167 40.407,75.190 40.328,75.318 40.407 C 75.444 40.485,75.497 40.318,75.481 39.886 C 75.415 38.089,75.462 37.914,76.067 37.695 C 77.101 37.322,77.223 36.726,77.266 31.862 C 77.287 29.540,77.333 27.611,77.369 27.575 C 77.405 27.540,78.122 27.500,78.962 27.486 C 80.504 27.462,81.238 27.186,80.680 26.841 C 80.528 26.748,80.519 26.675,80.649 26.594 C 80.750 26.532,80.833 26.297,80.833 26.073 C 80.833 25.692,81.497 25.508,82.375 25.647 C 82.444 25.658,82.491 25.610,82.480 25.542 C 82.469 25.473,82.474 25.379,82.492 25.333 C 82.509 25.287,82.556 24.990,82.597 24.672 C 82.692 23.940,82.859 23.779,83.501 23.797 C 84.151 23.815,84.529 23.190,84.150 22.723 C 83.996 22.534,83.988 22.479,84.125 22.561 C 84.337 22.689,84.374 22.451,84.417 20.667 C 84.473 18.325,84.458 18.383,85.007 18.274 C 86.173 18.040,86.253 16.209,85.152 14.972 C 84.506 14.246,84.469 14.141,84.427 12.917 C 84.364 11.086,84.327 10.817,84.154 10.924 C 84.056 10.985,84.075 10.872,84.196 10.674 C 84.389 10.359,84.375 10.282,84.093 10.073 C 83.695 9.778,83.223 9.763,83.110 10.042 C 83.043 10.208,83.024 10.208,83.013 10.042 C 83.006 9.927,82.901 9.833,82.780 9.833 C 82.625 9.833,82.573 9.617,82.604 9.096 C 82.657 8.189,82.439 7.980,81.526 8.068 C 80.811 8.137,80.768 8.095,80.827 7.375 C 80.844 7.161,80.763 6.999,80.637 6.997 C 80.461 6.995,80.463 6.965,80.646 6.849 C 80.984 6.635,80.730 6.356,80.245 6.409 C 80.014 6.434,79.785 6.390,79.736 6.311 C 79.687 6.232,79.479 6.167,79.274 6.167 C 79.000 6.167,78.845 6.015,78.694 5.597 C 78.348 4.640,77.765 4.539,72.514 4.519 C 69.427 4.507,68.015 4.557,68.088 4.674 C 68.156 4.784,68.048 4.810,67.788 4.745 C 67.522 4.678,67.286 4.737,67.107 4.917 C 66.821 5.203,66.719 5.924,66.988 5.757 C 67.074 5.704,67.198 5.756,67.265 5.872 C 67.332 5.988,67.328 6.031,67.257 5.966 C 67.185 5.902,67.021 5.955,66.892 6.084 C 66.763 6.213,66.547 6.277,66.412 6.225 C 66.277 6.173,66.035 6.188,65.875 6.258 C 65.715 6.328,65.453 6.369,65.294 6.349 C 65.051 6.319,65.012 6.435,65.050 7.085 C 65.103 7.987,65.004 8.082,64.000 8.087 L 63.250 8.092 63.200 8.962 C 63.172 9.441,63.097 9.840,63.033 9.847 C 62.969 9.855,62.633 9.874,62.285 9.889 C 61.932 9.905,61.585 10.026,61.496 10.167 C 61.282 10.505,61.293 10.711,61.517 10.573 C 61.650 10.491,61.650 10.553,61.517 10.802 C 61.416 10.991,61.333 11.637,61.333 12.239 C 61.333 13.416,61.060 13.713,60.701 12.925 C 60.358 12.173,58.420 11.645,57.250 11.985 C 56.782 12.121,56.795 12.129,57.459 12.113 C 57.927 12.102,58.265 12.194,58.456 12.385 C 58.731 12.659,58.718 12.669,58.208 12.567 C 57.592 12.443,56.206 12.748,55.827 13.090 C 55.637 13.261,54.983 13.328,53.327 13.344 C 52.093 13.356,50.944 13.441,50.772 13.533 C 50.551 13.651,50.493 13.647,50.573 13.517 C 50.645 13.401,50.523 13.333,50.242 13.333 C 49.917 13.333,49.823 13.400,49.893 13.581 C 49.972 13.786,49.933 13.795,49.668 13.629 C 49.250 13.368,49.128 13.514,49.082 14.335 C 49.032 15.207,49.074 15.182,47.687 15.186 C 47.034 15.188,46.500 15.247,46.500 15.317 C 46.500 15.386,46.331 15.437,46.125 15.430 C 45.867 15.421,45.757 15.507,45.773 15.707 C 45.785 15.866,45.723 15.952,45.634 15.897 C 45.546 15.842,45.493 15.936,45.518 16.107 C 45.628 16.851,45.382 17.086,44.533 17.049 L 43.728 17.013 43.688 17.794 C 43.666 18.223,43.608 18.614,43.559 18.662 C 43.510 18.711,43.493 18.389,43.519 17.948 C 43.576 17.024,43.403 16.840,42.476 16.836 C 41.884 16.833,41.866 16.814,41.725 16.042 L 41.582 15.250 40.724 15.200 C 39.898 15.152,39.864 15.131,39.763 14.592 C 39.636 13.917,39.397 13.698,38.651 13.576 L 38.083 13.482 38.604 13.724 C 39.167 13.986,39.669 14.588,39.663 14.995 C 39.661 15.135,39.541 15.012,39.398 14.720 C 39.254 14.429,38.881 14.069,38.568 13.921 C 38.256 13.772,38.000 13.574,38.000 13.480 C 38.000 13.386,37.831 13.323,37.625 13.340 C 35.933 13.477,32.500 13.311,32.500 13.093 C 32.500 11.671,28.952 11.475,28.238 12.857 C 27.721 13.856,27.500 13.473,27.500 11.583 C 27.500 10.290,27.445 9.833,27.291 9.833 C 27.176 9.833,26.983 9.612,26.864 9.341 C 26.744 9.071,26.500 8.803,26.323 8.747 C 26.145 8.690,25.922 8.499,25.827 8.322 C 25.692 8.070,25.475 8.000,24.827 8.000 C 23.988 8.000,23.829 7.800,23.987 6.937 C 24.052 6.586,23.422 6.167,22.829 6.167 C 22.234 6.167,22.205 6.140,22.102 5.495 C 22.019 4.979,21.896 4.785,21.570 4.661 C 20.936 4.421,11.884 4.449,11.734 4.692 M11.517 5.708 C 11.441 5.915,11.238 6.110,11.065 6.143 C 10.789 6.195,10.801 6.148,11.154 5.768 C 11.648 5.237,11.694 5.229,11.517 5.708 M31.397 12.159 C 31.846 12.330,32.449 13.107,32.271 13.285 C 32.212 13.344,31.940 13.178,31.667 12.917 C 31.117 12.390,29.821 12.492,29.132 13.115 C 28.966 13.265,28.775 13.331,28.707 13.262 C 28.507 13.060,29.526 12.350,30.250 12.186 C 30.617 12.103,30.931 12.028,30.947 12.018 C 30.964 12.008,31.167 12.072,31.397 12.159 M56.639 13.099 C 56.492 13.246,56.233 13.332,56.061 13.291 C 55.789 13.227,55.802 13.195,56.167 13.036 C 56.771 12.773,56.943 12.796,56.639 13.099 M85.347 15.943 C 85.515 16.151,85.426 16.127,85.042 15.857 C 84.744 15.648,84.500 15.442,84.500 15.399 C 84.500 15.255,85.109 15.646,85.347 15.943 M5.726 23.501 C 6.012 23.617,6.025 23.648,5.792 23.656 C 5.461 23.668,4.833 23.105,4.833 22.796 C 4.833 22.684,4.954 22.765,5.101 22.975 C 5.248 23.185,5.530 23.422,5.726 23.501 M28.855 28.025 C 28.669 28.516,28.385 28.758,27.833 28.898 C 27.501 28.982,27.525 28.947,27.949 28.726 C 28.241 28.573,28.570 28.233,28.680 27.969 C 28.917 27.395,29.076 27.445,28.855 28.025 M32.888 28.357 C 33.012 29.398,32.928 29.561,32.331 29.441 C 31.967 29.368,31.850 29.418,31.783 29.675 C 31.726 29.891,31.608 29.967,31.432 29.900 C 31.286 29.844,31.167 29.881,31.167 29.982 C 31.167 30.084,31.235 30.167,31.319 30.167 C 31.708 30.167,31.076 31.168,30.672 31.191 C 30.440 31.205,30.126 31.224,29.973 31.233 C 29.821 31.242,29.634 31.318,29.557 31.402 C 29.473 31.492,29.518 31.497,29.667 31.415 C 29.831 31.324,29.810 31.398,29.605 31.631 C 29.398 31.868,29.328 32.121,29.395 32.389 C 29.494 32.783,29.135 32.948,27.917 33.067 C 27.825 33.076,27.741 33.177,27.729 33.292 C 27.718 33.406,27.687 33.781,27.661 34.125 C 27.617 34.715,27.609 34.703,27.515 33.917 L 27.417 33.083 26.625 32.930 L 25.833 32.777 25.833 31.802 C 25.833 30.855,25.845 30.830,26.234 30.928 C 26.675 31.038,27.333 30.763,27.333 30.468 C 27.333 30.366,27.170 30.425,26.970 30.599 L 26.606 30.917 26.928 30.476 C 27.105 30.233,27.306 30.069,27.375 30.110 C 27.444 30.152,27.500 29.963,27.500 29.690 C 27.500 29.264,27.578 29.177,28.042 29.077 C 28.776 28.920,28.973 28.732,29.097 28.067 L 29.204 27.500 30.995 27.500 L 32.787 27.500 32.888 28.357 M76.763 36.641 C 76.511 37.129,75.910 37.667,75.617 37.667 C 75.538 37.667,75.689 37.486,75.950 37.266 C 76.212 37.046,76.531 36.671,76.658 36.433 C 76.785 36.195,76.920 36.031,76.957 36.068 C 76.994 36.105,76.907 36.363,76.763 36.641 M14.664 42.208 C 15.189 42.786,15.277 43.000,14.987 43.000 C 14.754 43.000,13.833 42.079,13.833 41.846 C 13.833 41.516,14.167 41.662,14.664 42.208 M50.000 45.123 C 50.732 45.211,52.246 45.601,52.580 45.788 C 53.061 46.058,59.667 52.542,59.667 52.746 C 59.667 52.858,59.894 53.264,60.172 53.648 C 60.588 54.222,60.664 54.462,60.599 55.002 C 60.555 55.364,60.590 55.703,60.676 55.756 C 61.065 55.996,60.824 54.139,60.346 53.204 C 59.876 52.285,57.054 49.342,53.816 46.393 C 52.682 45.360,51.464 44.937,49.885 45.027 C 49.489 45.049,49.507 45.064,50.000 45.123 M76.260 53.151 C 76.150 53.328,76.263 53.401,76.562 53.346 C 76.642 53.332,76.656 53.454,76.594 53.618 C 76.502 53.858,76.521 53.876,76.691 53.707 C 76.862 53.538,76.851 53.446,76.638 53.233 C 76.457 53.053,76.337 53.026,76.260 53.151 M28.313 57.083 C 28.581 57.414,28.580 57.414,28.208 57.099 C 28.002 56.925,27.839 56.662,27.846 56.516 C 27.858 56.290,27.874 56.288,27.952 56.500 C 28.002 56.637,28.165 56.900,28.313 57.083 M53.750 61.500 C 53.567 61.579,53.179 61.649,52.888 61.655 C 51.567 61.684,44.167 69.389,44.167 70.734 C 44.167 71.076,44.089 71.500,43.994 71.678 C 43.785 72.068,43.884 72.092,44.238 71.738 C 44.388 71.589,44.500 71.194,44.500 70.819 C 44.500 69.590,51.694 62.171,53.105 61.946 C 53.482 61.886,53.884 61.723,53.999 61.585 C 54.233 61.303,54.219 61.298,53.750 61.500 M85.525 73.388 C 85.510 73.665,85.294 74.065,85.000 74.359 C 84.396 74.963,84.377 75.049,84.898 74.811 C 85.420 74.574,85.712 74.006,85.622 73.402 L 85.550 72.917 85.525 73.388 M81.167 81.249 C 80.952 81.478,80.830 81.719,80.896 81.785 C 81.054 81.943,81.494 81.657,81.798 81.199 C 82.154 80.663,81.683 80.701,81.167 81.249 " stroke="none" fill="#beb444" fill-rule="evenodd"></path>
		<path id="path2" d="M11.183 4.838 C 10.559 5.143,10.166 5.589,10.167 5.990 C 10.168 6.134,10.312 6.014,10.489 5.723 C 10.765 5.271,11.248 4.955,11.708 4.925 C 11.835 4.917,11.908 4.672,11.806 4.600 C 11.775 4.578,11.495 4.685,11.183 4.838 M11.154 5.768 C 10.801 6.148,10.789 6.195,11.065 6.143 C 11.238 6.110,11.441 5.915,11.517 5.708 C 11.694 5.229,11.648 5.237,11.154 5.768 M28.731 12.072 C 28.404 12.215,28.145 12.490,28.031 12.816 C 27.805 13.464,27.913 13.485,28.238 12.857 C 28.504 12.343,29.075 12.049,30.000 11.949 C 30.577 11.887,30.576 11.886,29.917 11.867 C 29.550 11.855,29.016 11.948,28.731 12.072 M55.397 12.072 C 55.070 12.215,54.811 12.490,54.698 12.816 C 54.472 13.464,54.580 13.485,54.905 12.857 C 55.170 12.343,55.741 12.049,56.667 11.949 C 57.243 11.887,57.242 11.886,56.583 11.867 C 56.217 11.855,55.683 11.948,55.397 12.072 M32.120 12.404 C 32.445 12.839,32.564 12.859,32.408 12.453 C 32.353 12.310,32.198 12.151,32.065 12.099 C 31.882 12.029,31.896 12.104,32.120 12.404 M30.319 12.329 C 29.543 12.427,28.667 12.874,28.667 13.171 C 28.667 13.410,28.930 13.369,29.159 13.092 C 29.647 12.505,31.131 12.403,31.671 12.920 C 31.943 13.182,32.167 13.320,32.167 13.227 C 32.167 13.057,31.559 12.448,31.250 12.307 C 31.158 12.266,30.739 12.276,30.319 12.329 M56.986 12.334 C 56.212 12.427,55.333 12.872,55.333 13.171 C 55.333 13.408,55.596 13.369,55.821 13.098 C 56.088 12.777,57.573 12.440,58.185 12.562 C 58.459 12.617,58.643 12.597,58.594 12.517 C 58.461 12.302,57.843 12.232,56.986 12.334 M39.022 14.239 C 39.236 14.461,39.444 14.612,39.483 14.573 C 39.582 14.473,38.983 13.833,38.790 13.833 C 38.703 13.833,38.807 14.016,39.022 14.239 M4.833 22.796 C 4.833 23.105,5.461 23.668,5.792 23.656 C 6.025 23.648,6.012 23.617,5.726 23.501 C 5.530 23.422,5.248 23.185,5.101 22.975 C 4.954 22.765,4.833 22.684,4.833 22.796 M28.675 27.980 C 28.561 28.256,28.256 28.561,27.980 28.675 C 27.710 28.787,27.522 28.911,27.563 28.951 C 27.733 29.122,28.695 28.448,28.845 28.052 C 29.075 27.447,28.923 27.382,28.675 27.980 M26.958 30.424 C 26.748 30.704,26.720 30.847,26.859 30.932 C 26.971 31.002,27.007 30.979,26.944 30.878 C 26.820 30.677,27.227 30.282,27.390 30.446 C 27.451 30.506,27.500 30.472,27.500 30.371 C 27.500 30.014,27.247 30.038,26.958 30.424 M14.098 41.875 C 14.310 42.249,14.888 42.833,15.045 42.833 C 15.228 42.833,14.312 41.696,14.115 41.679 C 14.041 41.672,14.033 41.760,14.098 41.875 M13.672 42.292 C 13.665 42.557,14.269 43.167,14.537 43.167 C 14.649 43.167,14.576 43.051,14.375 42.911 C 14.174 42.770,13.935 42.526,13.843 42.369 C 13.749 42.207,13.675 42.173,13.672 42.292 M49.064 45.261 C 49.080 45.642,49.007 45.718,48.583 45.764 C 48.067 45.820,47.500 46.352,47.500 46.780 C 47.500 47.121,47.160 47.424,46.626 47.558 C 46.159 47.675,45.569 48.540,45.753 48.838 C 45.808 48.927,45.701 49.000,45.515 49.000 C 45.298 49.000,45.208 49.081,45.265 49.228 C 45.316 49.363,45.214 49.492,45.014 49.545 C 44.827 49.593,44.516 49.903,44.321 50.233 C 44.127 50.563,43.900 50.791,43.817 50.740 C 43.734 50.689,43.667 51.052,43.667 51.548 C 43.667 52.251,43.590 52.518,43.316 52.765 C 43.124 52.940,42.854 53.298,42.718 53.562 C 42.460 54.062,36.427 60.167,36.192 60.167 C 36.118 60.167,35.726 60.385,35.320 60.652 C 34.894 60.933,34.303 61.159,33.917 61.189 C 33.161 61.247,32.784 61.596,33.014 62.026 C 33.115 62.214,33.097 62.329,32.958 62.375 C 32.812 62.424,32.836 62.526,33.043 62.734 C 33.203 62.893,33.333 63.037,33.333 63.054 C 33.333 63.070,33.006 63.090,32.606 63.097 C 31.886 63.111,31.671 62.723,32.213 62.388 C 32.321 62.321,32.334 62.369,32.249 62.516 C 32.169 62.654,32.175 62.693,32.265 62.611 C 32.348 62.535,32.418 62.422,32.419 62.361 C 32.421 62.300,32.481 62.156,32.554 62.042 C 32.792 61.667,32.474 61.417,32.204 61.766 C 31.968 62.071,31.962 62.068,32.047 61.708 C 32.165 61.207,31.964 61.233,31.724 61.751 C 31.587 62.047,31.584 62.167,31.714 62.167 C 31.815 62.167,31.751 62.285,31.574 62.429 C 31.396 62.573,31.363 62.643,31.500 62.583 C 31.667 62.511,31.654 62.554,31.461 62.712 C 31.302 62.843,31.225 63.002,31.289 63.067 C 31.354 63.132,31.165 63.142,30.870 63.090 C 30.528 63.030,30.333 63.063,30.333 63.182 C 30.333 63.285,30.230 63.329,30.104 63.281 C 29.977 63.232,29.781 63.281,29.667 63.388 C 29.502 63.543,29.497 63.510,29.643 63.226 C 29.781 62.956,29.775 62.825,29.616 62.694 C 29.414 62.527,28.956 62.672,28.986 62.894 C 29.059 63.441,28.996 63.519,28.710 63.234 C 28.501 63.025,28.478 62.924,28.626 62.875 C 28.740 62.837,28.833 62.729,28.833 62.635 C 28.833 62.541,28.723 62.507,28.589 62.558 C 28.454 62.610,28.293 62.569,28.230 62.467 C 28.160 62.355,28.191 62.329,28.308 62.401 C 28.413 62.466,28.500 62.438,28.500 62.337 C 28.500 62.208,28.610 62.211,28.875 62.348 C 29.165 62.497,29.208 62.496,29.063 62.342 C 28.898 62.166,28.563 62.052,28.097 62.013 C 27.883 61.995,28.151 61.751,28.389 61.747 C 28.496 61.745,28.729 61.876,28.906 62.038 C 29.084 62.201,29.316 62.333,29.422 62.333 C 29.708 62.333,30.187 62.920,30.045 63.097 C 29.977 63.181,30.028 63.158,30.157 63.046 C 30.436 62.803,30.038 62.254,29.447 62.066 C 29.109 61.959,29.109 61.954,29.427 61.706 C 29.698 61.496,29.703 61.471,29.458 61.556 C 29.286 61.615,29.166 61.573,29.164 61.453 C 29.162 61.311,29.119 61.318,29.018 61.476 C 28.936 61.605,28.833 61.634,28.777 61.543 C 28.639 61.320,27.696 61.317,27.559 61.540 C 27.490 61.651,27.538 61.688,27.681 61.633 C 27.852 61.567,27.917 61.681,27.917 62.049 C 27.917 62.328,27.822 62.587,27.707 62.625 C 27.592 62.664,27.537 62.759,27.585 62.836 C 27.633 62.914,27.602 63.020,27.517 63.073 C 27.432 63.125,27.388 63.037,27.419 62.876 C 27.449 62.715,27.480 62.523,27.487 62.448 C 27.494 62.374,27.575 62.360,27.667 62.417 C 27.758 62.473,27.833 62.440,27.833 62.343 C 27.833 62.246,27.754 62.167,27.657 62.167 C 27.560 62.167,27.535 62.079,27.601 61.972 C 27.681 61.841,27.631 61.811,27.449 61.881 C 27.300 61.938,27.126 61.902,27.063 61.800 C 26.998 61.695,27.024 61.662,27.123 61.723 C 27.393 61.890,27.533 61.324,27.295 61.030 C 27.150 60.851,27.146 60.807,27.282 60.888 C 27.411 60.966,27.471 60.889,27.454 60.666 C 27.437 60.439,27.346 60.357,27.182 60.420 C 26.991 60.493,26.999 60.444,27.218 60.202 C 27.527 59.860,27.597 59.587,27.333 59.750 C 27.242 59.807,27.167 59.774,27.167 59.677 C 27.167 59.579,27.030 59.500,26.862 59.500 C 26.111 59.500,25.396 57.623,26.004 57.247 C 26.098 57.189,26.154 57.232,26.129 57.342 C 26.036 57.748,26.504 57.679,26.662 57.264 C 26.751 57.027,26.931 56.833,27.061 56.833 C 27.191 56.833,27.343 56.715,27.399 56.570 C 27.536 56.211,27.528 56.167,27.323 56.167 C 27.226 56.167,27.201 56.253,27.266 56.359 C 27.345 56.486,27.311 56.506,27.167 56.417 C 26.995 56.310,27.007 56.241,27.225 56.081 C 28.170 55.390,27.160 52.584,25.366 50.918 C 24.674 50.275,23.306 48.945,22.326 47.962 C 20.168 45.796,18.783 44.920,17.751 45.069 C 17.384 45.122,16.952 45.171,16.792 45.177 C 16.631 45.183,16.500 45.257,16.500 45.343 C 16.500 45.428,16.240 45.465,15.921 45.424 C 15.603 45.383,15.299 45.420,15.246 45.506 C 15.193 45.592,15.266 45.618,15.408 45.564 C 15.550 45.509,15.667 45.539,15.667 45.631 C 15.667 45.723,15.788 45.844,15.935 45.901 C 16.135 45.977,16.177 45.933,16.098 45.728 C 16.007 45.491,16.030 45.484,16.264 45.678 C 16.512 45.884,16.504 45.919,16.172 46.066 C 15.903 46.187,15.770 46.168,15.663 45.994 C 15.583 45.865,15.462 45.816,15.394 45.884 C 15.217 46.061,15.137 46.705,15.305 46.601 C 15.382 46.553,15.444 46.624,15.444 46.757 C 15.444 46.891,15.411 46.966,15.369 46.925 C 15.328 46.883,15.193 46.939,15.069 47.050 C 14.380 47.665,14.355 47.675,14.191 47.382 C 14.058 47.144,13.990 47.134,13.768 47.318 C 13.623 47.439,13.547 47.608,13.600 47.694 C 13.657 47.786,13.793 47.770,13.932 47.654 C 14.061 47.547,14.167 47.531,14.167 47.620 C 14.167 47.708,13.979 47.865,13.750 47.970 C 13.349 48.152,13.148 48.833,13.495 48.833 C 13.584 48.833,13.617 48.731,13.569 48.605 C 13.461 48.324,13.945 48.109,14.104 48.366 C 14.170 48.474,14.143 48.505,14.037 48.440 C 13.938 48.378,13.809 48.404,13.752 48.497 C 13.694 48.590,13.745 48.668,13.865 48.669 C 14.042 48.671,14.041 48.699,13.861 48.813 C 13.738 48.890,13.638 49.012,13.638 49.083 C 13.638 49.155,13.738 49.282,13.861 49.367 C 14.016 49.475,13.976 49.492,13.729 49.423 C 13.408 49.333,13.375 49.389,13.384 50.000 C 13.392 50.528,13.308 50.736,13.001 50.951 C 12.634 51.208,12.615 51.208,12.715 50.947 C 12.787 50.759,12.738 50.667,12.567 50.667 C 12.389 50.667,12.342 50.766,12.414 50.991 C 12.487 51.223,12.396 51.394,12.092 51.593 C 11.690 51.856,11.460 52.314,11.850 52.073 C 11.979 51.993,11.977 52.065,11.844 52.313 C 11.740 52.508,11.710 52.667,11.777 52.667 C 11.845 52.667,11.810 52.757,11.700 52.867 C 11.375 53.192,11.492 54.333,11.851 54.333 C 12.078 54.333,12.029 53.873,11.792 53.774 C 11.677 53.727,11.758 53.707,11.972 53.731 C 12.353 53.774,12.665 54.086,12.658 54.417 C 12.656 54.508,12.548 54.396,12.417 54.167 C 12.231 53.841,12.177 53.815,12.173 54.047 C 12.169 54.210,12.067 54.382,11.944 54.429 C 11.649 54.542,11.505 59.064,11.756 60.362 C 11.788 60.530,11.744 60.667,11.657 60.667 C 11.571 60.667,11.500 60.817,11.500 61.000 C 11.500 61.289,10.884 61.491,10.609 61.292 C 10.577 61.269,10.427 61.353,10.276 61.479 C 10.105 61.620,10.000 61.638,10.000 61.526 C 10.000 61.426,9.885 61.388,9.745 61.442 C 9.525 61.526,9.530 61.570,9.787 61.764 C 10.039 61.955,10.044 61.990,9.821 61.995 C 9.310 62.005,8.506 63.167,9.010 63.167 C 9.107 63.167,9.144 63.099,9.093 63.015 C 8.992 62.852,9.916 62.000,10.193 62.000 C 10.488 62.000,10.235 62.414,9.903 62.476 C 9.399 62.570,9.106 62.860,9.358 63.015 C 9.478 63.090,9.658 63.026,9.789 62.863 C 9.995 62.606,10.009 62.610,9.963 62.913 C 9.906 63.291,9.228 63.412,8.571 63.162 C 8.305 63.061,8.167 63.067,8.167 63.181 C 8.167 63.275,8.100 63.312,8.017 63.261 C 7.846 63.155,7.639 63.584,7.790 63.734 C 7.845 63.789,8.027 63.710,8.195 63.558 C 8.377 63.393,8.500 63.359,8.500 63.474 C 8.500 63.580,8.411 63.667,8.301 63.667 C 8.192 63.667,8.245 63.771,8.419 63.897 C 8.713 64.113,8.704 64.125,8.275 64.078 C 7.921 64.039,7.855 64.076,7.990 64.237 C 8.085 64.353,8.110 64.501,8.045 64.566 C 7.980 64.631,8.057 64.634,8.215 64.574 C 8.434 64.490,8.479 64.528,8.400 64.735 C 8.328 64.920,8.156 64.983,7.856 64.934 C 7.614 64.893,7.293 64.855,7.143 64.847 C 6.992 64.840,6.823 64.712,6.766 64.565 C 6.692 64.373,6.735 64.324,6.915 64.393 C 7.064 64.450,7.167 64.396,7.167 64.260 C 7.167 64.112,7.034 64.057,6.792 64.104 L 6.417 64.176 6.792 64.010 C 6.998 63.919,7.167 63.765,7.167 63.668 C 7.167 63.570,6.988 63.609,6.760 63.759 C 6.518 63.917,6.391 64.124,6.447 64.269 C 6.498 64.403,6.407 64.660,6.244 64.840 C 6.065 65.037,6.027 65.167,6.147 65.167 C 6.398 65.167,6.312 65.875,6.017 66.230 C 5.895 66.376,5.734 66.458,5.658 66.411 C 5.582 66.365,5.446 66.459,5.354 66.621 C 5.225 66.851,5.142 66.872,4.986 66.718 C 4.711 66.445,5.064 65.601,5.554 65.365 C 5.783 65.254,5.824 65.186,5.667 65.180 C 5.247 65.166,4.988 65.421,4.765 66.070 C 4.488 66.874,4.422 77.599,4.693 77.766 C 4.809 77.838,4.792 77.924,4.643 78.018 C 4.453 78.138,4.454 78.162,4.645 78.164 C 4.827 78.166,4.832 78.217,4.673 78.409 C 4.371 78.773,4.587 78.960,5.247 78.907 C 5.896 78.856,6.413 79.219,6.260 79.618 C 5.969 80.376,6.688 81.022,7.009 80.292 C 7.163 79.940,7.170 79.946,7.110 80.375 C 7.040 80.877,7.262 81.011,7.385 80.542 C 7.456 80.272,7.463 80.273,7.481 80.552 C 7.491 80.717,7.572 80.809,7.659 80.754 C 7.747 80.700,7.777 80.527,7.727 80.370 C 7.658 80.154,7.674 80.138,7.795 80.306 C 7.882 80.428,8.019 80.516,8.098 80.502 C 8.177 80.487,8.268 80.574,8.300 80.696 C 8.339 80.842,8.299 80.832,8.182 80.667 C 8.036 80.460,8.005 80.484,8.003 80.802 C 8.001 81.016,8.074 81.141,8.167 81.083 C 8.258 81.027,8.333 81.060,8.333 81.157 C 8.333 81.254,8.271 81.333,8.194 81.333 C 8.118 81.333,8.056 81.446,8.056 81.583 C 8.056 81.921,8.278 81.899,8.487 81.542 C 8.580 81.381,8.659 81.335,8.662 81.438 C 8.664 81.541,8.554 81.719,8.417 81.833 C 7.842 82.310,8.178 82.633,9.208 82.595 C 9.838 82.571,10.078 82.814,9.964 83.358 C 9.935 83.496,10.035 83.563,10.225 83.531 C 10.410 83.499,10.490 83.549,10.424 83.656 C 10.363 83.753,10.203 83.833,10.067 83.833 C 9.864 83.833,9.859 83.875,10.035 84.065 C 10.217 84.262,10.268 84.249,10.370 83.982 C 10.516 83.596,10.700 83.565,10.632 83.938 C 10.558 84.352,12.661 84.455,12.958 84.052 C 13.154 83.787,13.167 83.787,13.167 84.051 C 13.167 84.225,13.299 84.333,13.510 84.333 C 13.717 84.333,13.808 84.261,13.740 84.150 C 13.661 84.023,13.722 84.013,13.938 84.119 C 14.452 84.370,17.729 84.402,17.576 84.154 C 17.485 84.008,17.516 83.992,17.683 84.099 C 18.030 84.322,19.231 84.329,19.372 84.108 C 19.465 83.964,19.496 83.964,19.497 84.108 C 19.499 84.238,19.912 84.289,20.782 84.268 L 22.064 84.237 22.096 83.521 C 22.136 82.627,22.281 82.482,23.175 82.443 C 23.596 82.425,23.908 82.326,23.933 82.202 C 23.956 82.086,23.940 82.061,23.896 82.145 C 23.790 82.352,23.167 82.176,23.164 81.939 C 23.163 81.835,23.089 81.862,23.000 82.000 C 22.911 82.137,22.837 82.171,22.836 82.074 C 22.834 81.976,22.940 81.751,23.071 81.574 C 23.239 81.345,23.300 81.323,23.279 81.500 C 23.232 81.906,23.565 81.887,23.810 81.469 C 24.025 81.102,24.023 81.099,23.768 81.407 C 23.505 81.724,23.500 81.724,23.500 81.365 C 23.500 81.164,23.573 81.000,23.661 81.000 C 23.750 81.000,23.775 80.876,23.717 80.725 C 23.631 80.501,23.695 80.467,24.069 80.538 C 24.359 80.593,24.557 80.546,24.609 80.409 C 24.655 80.290,24.803 80.150,24.938 80.098 C 25.077 80.045,25.139 80.076,25.081 80.170 C 25.025 80.261,25.111 80.467,25.272 80.626 C 25.550 80.902,25.559 80.902,25.454 80.625 C 25.380 80.429,25.424 80.333,25.589 80.333 C 25.737 80.333,25.833 80.173,25.833 79.927 C 25.833 79.703,25.927 79.460,26.042 79.386 C 26.429 79.138,27.333 78.872,27.333 79.006 C 27.333 79.079,27.266 79.164,27.183 79.194 C 27.100 79.225,27.133 79.342,27.255 79.454 C 27.439 79.623,27.474 79.500,27.459 78.755 C 27.449 78.257,27.374 77.892,27.292 77.943 C 27.209 77.993,27.237 77.884,27.352 77.699 C 27.531 77.413,28.108 77.163,28.750 77.093 C 28.842 77.083,29.022 77.009,29.151 76.928 C 29.292 76.840,29.347 76.844,29.288 76.938 C 29.230 77.032,29.836 77.088,30.804 77.078 C 31.691 77.069,32.654 77.133,32.944 77.221 C 33.234 77.309,33.609 77.321,33.777 77.249 C 33.945 77.176,34.261 77.135,34.477 77.156 C 34.725 77.181,34.829 77.128,34.759 77.014 C 34.697 76.915,34.718 76.833,34.806 76.833 C 34.893 76.833,35.008 76.946,35.060 77.083 C 35.175 77.383,35.688 77.412,35.967 77.133 C 36.077 77.023,36.167 76.994,36.167 77.069 C 36.167 77.144,36.373 77.071,36.625 76.907 C 37.024 76.647,37.054 76.645,36.855 76.888 C 36.699 77.077,36.687 77.167,36.818 77.167 C 36.924 77.167,37.054 77.052,37.108 76.912 C 37.193 76.692,37.236 76.697,37.425 76.953 C 37.589 77.176,37.693 77.202,37.837 77.060 C 37.982 76.917,37.978 76.840,37.822 76.743 C 37.689 76.661,37.657 76.684,37.734 76.808 C 37.799 76.913,37.766 77.000,37.659 77.000 C 37.552 77.000,37.508 76.887,37.560 76.750 C 37.613 76.612,37.571 76.500,37.467 76.500 C 37.363 76.500,37.321 76.456,37.375 76.403 C 37.428 76.350,37.628 76.390,37.819 76.492 C 38.104 76.645,38.167 76.630,38.167 76.413 C 38.167 76.252,38.089 76.195,37.972 76.268 C 37.838 76.350,37.813 76.294,37.891 76.090 C 37.954 75.925,37.928 75.698,37.833 75.583 C 37.698 75.420,37.859 75.392,38.580 75.453 C 39.477 75.529,39.600 75.464,39.520 74.958 C 39.509 74.890,39.580 74.833,39.678 74.833 C 39.776 74.833,39.814 74.965,39.764 75.125 C 39.689 75.360,39.784 75.425,40.252 75.458 C 40.655 75.487,40.833 75.429,40.833 75.270 C 40.833 75.144,40.965 74.938,41.125 74.812 C 41.386 74.607,41.394 74.613,41.200 74.860 C 40.987 75.133,41.219 75.503,41.456 75.267 C 41.511 75.212,41.464 75.167,41.351 75.167 C 41.239 75.167,41.194 75.090,41.252 74.997 C 41.309 74.904,41.445 74.872,41.553 74.926 C 41.661 74.980,41.528 74.835,41.257 74.603 C 40.754 74.174,40.113 74.284,40.488 74.736 C 40.689 74.977,40.436 75.416,40.185 75.262 C 40.083 75.199,40.001 75.058,40.003 74.948 C 40.004 74.816,40.053 74.825,40.148 74.976 C 40.255 75.144,40.323 75.152,40.413 75.007 C 40.487 74.886,40.395 74.775,40.174 74.717 C 39.941 74.656,39.848 74.535,39.910 74.374 C 39.963 74.237,39.915 74.015,39.804 73.881 C 39.642 73.686,39.649 73.644,39.842 73.672 C 40.320 73.740,40.519 73.665,40.402 73.458 C 40.308 73.292,40.329 73.292,40.509 73.458 C 40.799 73.728,41.054 73.728,40.902 73.458 C 40.809 73.293,40.830 73.292,41.006 73.456 C 41.279 73.708,41.147 73.859,40.626 73.892 C 40.371 73.908,40.223 74.026,40.208 74.226 C 40.186 74.512,40.207 74.515,40.480 74.268 C 40.643 74.120,40.897 74.000,41.045 74.000 C 41.193 74.000,41.360 73.925,41.417 73.833 C 41.473 73.742,41.759 73.666,42.052 73.664 C 42.673 73.661,43.408 73.329,43.438 73.037 C 43.449 72.925,43.468 72.608,43.479 72.333 C 43.492 72.027,43.590 71.833,43.732 71.833 C 44.026 71.833,44.167 71.469,44.167 70.710 C 44.167 69.888,45.034 68.767,47.787 66.032 C 51.418 62.424,52.295 61.667,52.836 61.667 C 53.501 61.667,54.167 61.386,54.167 61.105 C 54.167 60.817,54.617 60.618,54.757 60.845 C 54.813 60.935,54.768 60.988,54.658 60.962 C 54.548 60.937,54.428 60.999,54.390 61.100 C 54.307 61.325,55.451 61.282,55.682 61.051 C 55.935 60.798,56.009 60.128,55.811 59.889 C 55.578 59.609,55.884 59.482,56.878 59.444 C 57.315 59.428,57.624 59.333,57.645 59.208 C 57.717 58.787,57.705 58.241,57.618 57.897 C 57.533 57.564,57.582 57.546,58.488 57.592 L 59.449 57.639 59.442 56.504 C 59.437 55.636,59.383 55.389,59.216 55.453 C 59.069 55.509,59.030 55.448,59.099 55.269 C 59.162 55.104,59.115 54.998,58.976 54.994 C 58.852 54.991,58.938 54.873,59.167 54.733 C 59.396 54.592,59.446 54.520,59.278 54.572 C 59.088 54.631,58.997 54.594,59.037 54.473 C 59.238 53.868,59.667 54.224,59.667 54.997 C 59.667 55.785,59.823 56.000,60.394 56.000 C 60.837 56.000,60.665 54.329,60.149 53.615 C 59.884 53.249,59.667 52.858,59.667 52.746 C 59.667 52.542,53.061 46.058,52.580 45.788 C 52.160 45.553,50.519 45.167,49.942 45.167 C 49.644 45.167,49.320 45.087,49.223 44.989 C 49.098 44.864,49.051 44.944,49.064 45.261 M49.503 45.661 C 49.416 45.824,49.392 46.004,49.450 46.061 C 49.508 46.119,49.374 46.173,49.153 46.180 C 48.757 46.193,48.758 46.196,49.204 46.359 L 49.657 46.525 49.218 46.931 C 48.862 47.262,48.667 47.320,48.181 47.240 C 47.834 47.183,47.667 47.201,47.783 47.284 C 48.011 47.446,47.870 47.730,47.493 47.868 C 47.322 47.932,47.243 48.161,47.257 48.561 C 47.271 49.003,47.225 49.118,47.080 48.997 C 46.946 48.886,46.792 48.936,46.593 49.156 C 46.014 49.796,45.678 49.080,46.146 48.205 C 46.315 47.889,47.220 47.443,47.376 47.598 C 47.415 47.637,47.537 47.368,47.647 47.000 C 47.860 46.288,48.457 45.763,48.872 45.922 C 49.136 46.024,49.406 45.586,49.242 45.320 C 49.191 45.238,49.264 45.215,49.405 45.269 C 49.592 45.340,49.618 45.445,49.503 45.661 M17.000 46.661 C 17.000 46.750,16.894 46.782,16.765 46.733 C 16.626 46.679,16.497 46.767,16.451 46.946 C 16.388 47.190,16.368 47.176,16.353 46.875 C 16.339 46.605,16.426 46.500,16.667 46.500 C 16.850 46.500,17.000 46.573,17.000 46.661 M52.454 47.333 C 52.427 47.697,52.091 47.782,51.901 47.474 C 51.827 47.355,51.855 47.327,51.974 47.401 C 52.088 47.471,52.167 47.414,52.167 47.260 C 52.167 47.117,52.237 47.000,52.323 47.000 C 52.409 47.000,52.468 47.150,52.454 47.333 M14.883 47.611 C 14.815 47.789,14.842 47.848,14.960 47.775 C 15.061 47.712,15.188 47.732,15.241 47.819 C 15.380 48.044,15.110 48.171,14.843 48.006 C 14.643 47.882,14.695 47.333,14.906 47.333 C 14.952 47.333,14.942 47.458,14.883 47.611 M19.040 48.225 C 19.145 48.160,19.170 48.194,19.099 48.308 C 19.027 48.425,19.147 48.564,19.407 48.663 C 19.641 48.752,19.833 48.872,19.833 48.930 C 19.833 48.988,19.726 48.994,19.594 48.944 C 19.463 48.893,19.330 48.927,19.299 49.018 C 19.193 49.336,18.586 49.293,18.398 48.954 C 18.253 48.692,18.271 48.561,18.482 48.345 C 18.629 48.193,18.775 48.129,18.806 48.202 C 18.837 48.276,18.942 48.286,19.040 48.225 M14.750 48.667 C 14.584 48.850,14.372 49.000,14.278 49.000 C 14.075 49.000,14.684 48.357,14.901 48.343 C 14.984 48.338,14.916 48.483,14.750 48.667 M44.167 49.500 C 43.983 49.683,43.837 50.002,43.841 50.208 C 43.848 50.547,43.868 50.538,44.050 50.111 C 44.161 49.851,44.439 49.535,44.668 49.409 C 44.983 49.234,45.013 49.177,44.792 49.173 C 44.631 49.169,44.350 49.317,44.167 49.500 M45.037 49.926 C 44.833 50.069,44.667 50.268,44.667 50.369 C 44.667 50.469,44.835 50.409,45.042 50.234 L 45.417 49.917 45.111 50.278 C 44.812 50.633,44.814 50.641,45.195 50.707 C 45.550 50.769,45.557 50.787,45.271 50.913 C 45.049 51.012,44.914 50.971,44.802 50.772 C 44.717 50.619,44.576 50.536,44.490 50.590 C 44.404 50.643,44.333 50.607,44.333 50.510 C 44.333 50.268,44.954 49.667,45.204 49.667 C 45.316 49.667,45.241 49.783,45.037 49.926 M12.717 51.958 C 12.623 52.214,12.660 52.208,13.013 51.917 L 13.417 51.583 13.096 51.962 C 12.781 52.334,12.335 52.236,12.574 51.848 C 12.748 51.567,12.835 51.634,12.717 51.958 M57.833 52.679 C 57.833 52.985,57.806 52.996,57.583 52.774 C 57.446 52.636,57.333 52.481,57.333 52.429 C 57.333 52.376,57.446 52.333,57.583 52.333 C 57.725 52.333,57.833 52.483,57.833 52.679 M27.791 56.646 C 27.735 56.859,27.734 56.988,27.789 56.933 C 27.845 56.878,28.046 56.964,28.236 57.125 C 28.575 57.410,28.577 57.409,28.313 57.083 C 28.165 56.900,28.009 56.639,27.968 56.504 C 27.916 56.337,27.859 56.382,27.791 56.646 M59.266 57.026 C 59.337 57.141,59.312 57.173,59.203 57.106 C 59.102 57.044,58.952 57.115,58.868 57.265 C 58.728 57.515,58.708 57.515,58.610 57.260 C 58.552 57.107,58.573 57.025,58.657 57.077 C 58.741 57.129,58.857 57.096,58.915 57.003 C 59.050 56.785,59.120 56.789,59.266 57.026 M22.406 58.825 C 22.337 59.420,22.254 59.650,22.166 59.492 C 21.971 59.144,21.920 57.822,22.083 57.333 L 22.221 56.917 22.366 57.417 C 22.446 57.692,22.464 58.326,22.406 58.825 M26.833 57.333 C 26.833 57.711,27.006 57.760,27.300 57.467 C 27.594 57.173,27.544 57.000,27.167 57.000 C 26.944 57.000,26.833 57.111,26.833 57.333 M57.601 58.362 C 57.683 58.495,57.628 58.521,57.425 58.443 C 57.217 58.363,57.155 58.396,57.216 58.554 C 57.263 58.677,57.200 58.778,57.076 58.778 C 56.910 58.778,56.894 58.698,57.015 58.472 C 57.202 58.122,57.427 58.080,57.601 58.362 M56.456 58.972 C 56.430 59.315,56.056 59.399,56.056 59.063 C 56.056 58.945,56.118 58.887,56.194 58.934 C 56.271 58.981,56.333 58.940,56.333 58.843 C 56.333 58.746,56.366 58.667,56.406 58.667 C 56.446 58.667,56.469 58.804,56.456 58.972 M8.667 62.000 C 8.483 62.183,8.338 62.427,8.345 62.542 C 8.351 62.656,8.434 62.589,8.529 62.393 C 8.624 62.196,8.863 61.957,9.059 61.862 C 9.256 61.767,9.323 61.684,9.208 61.678 C 9.094 61.672,8.850 61.817,8.667 62.000 M7.250 63.583 C 7.250 63.813,7.331 64.000,7.430 64.000 C 7.647 64.000,7.623 63.291,7.404 63.218 C 7.319 63.190,7.250 63.354,7.250 63.583 M5.409 65.909 C 5.184 66.134,5.000 66.413,5.000 66.530 C 5.000 66.646,5.122 66.567,5.271 66.353 C 5.453 66.095,5.582 66.030,5.661 66.158 C 5.745 66.294,5.842 66.274,5.997 66.087 C 6.183 65.863,6.169 65.840,5.899 65.926 C 5.597 66.023,5.597 66.016,5.907 65.764 C 6.086 65.618,6.138 65.500,6.024 65.500 C 5.911 65.500,5.634 65.684,5.409 65.909 M10.333 66.583 C 10.333 67.113,9.712 67.379,9.341 67.007 C 8.986 66.652,9.020 66.231,9.387 66.441 C 9.495 66.503,9.528 66.492,9.460 66.417 C 9.392 66.342,9.421 66.178,9.525 66.053 C 9.736 65.799,10.333 66.191,10.333 66.583 M31.250 66.500 C 31.315 66.606,30.939 66.656,30.218 66.639 L 29.083 66.611 30.083 66.500 C 30.633 66.439,31.098 66.377,31.115 66.361 C 31.133 66.346,31.193 66.408,31.250 66.500 M43.582 70.648 C 43.657 71.473,43.480 71.543,43.242 70.782 C 43.123 70.401,43.123 70.175,43.243 70.051 C 43.480 69.807,43.509 69.860,43.582 70.648 M43.052 72.604 C 42.948 72.875,42.787 72.783,42.734 72.423 C 42.714 72.290,42.795 72.226,42.923 72.275 C 43.045 72.322,43.104 72.470,43.052 72.604 M41.260 74.097 C 40.989 74.295,40.981 74.333,41.208 74.333 C 41.358 74.333,41.530 74.253,41.590 74.156 C 41.767 73.870,41.609 73.842,41.260 74.097 M37.277 76.072 C 37.222 76.216,37.081 76.332,36.964 76.331 C 36.804 76.329,36.809 76.291,36.983 76.181 C 37.127 76.089,37.171 75.917,37.098 75.725 C 37.007 75.487,37.026 75.462,37.179 75.614 C 37.288 75.722,37.332 75.928,37.277 76.072 M5.501 78.498 C 5.402 78.682,5.282 78.833,5.234 78.833 C 5.186 78.833,5.195 78.755,5.255 78.659 C 5.314 78.564,5.267 78.370,5.150 78.230 C 4.977 78.022,4.982 77.948,5.175 77.828 C 5.507 77.623,5.727 78.075,5.501 78.498 M22.702 79.181 C 22.783 79.235,22.739 79.371,22.604 79.483 C 22.179 79.835,21.581 79.204,21.953 78.794 C 22.218 78.501,22.237 78.500,22.392 78.785 C 22.482 78.949,22.621 79.127,22.702 79.181 M26.725 78.842 C 26.629 78.938,26.394 79.029,26.203 79.043 C 26.012 79.057,25.888 79.120,25.926 79.182 C 25.965 79.245,25.885 79.388,25.748 79.502 C 25.549 79.667,25.501 79.662,25.503 79.479 C 25.508 78.987,25.753 78.831,26.742 78.689 C 26.829 78.677,26.821 78.745,26.725 78.842 M6.775 79.455 C 6.802 79.900,6.788 79.897,6.532 79.403 C 6.397 79.144,6.402 79.056,6.551 79.056 C 6.660 79.056,6.761 79.235,6.775 79.455 M26.200 79.533 C 25.912 79.821,25.952 80.072,26.343 80.425 C 26.737 80.782,27.206 80.607,27.311 80.065 C 27.362 79.807,27.310 79.826,27.030 80.167 C 26.705 80.563,26.674 80.569,26.393 80.293 C 26.146 80.050,26.134 79.968,26.323 79.793 C 26.454 79.672,26.504 79.663,26.443 79.773 C 26.313 80.004,26.762 80.417,26.900 80.194 C 26.953 80.108,26.885 79.946,26.750 79.833 C 26.615 79.721,26.545 79.562,26.595 79.481 C 26.730 79.262,26.432 79.302,26.200 79.533 M25.184 81.544 C 24.964 81.657,24.722 81.923,24.645 82.133 C 24.555 82.377,24.564 82.480,24.669 82.415 C 24.759 82.359,24.833 82.204,24.833 82.069 C 24.833 81.935,25.021 81.754,25.250 81.667 C 25.479 81.580,25.667 81.469,25.667 81.421 C 25.667 81.302,25.641 81.308,25.184 81.544 M11.586 82.164 C 11.831 81.961,11.847 82.247,11.612 82.623 C 11.526 82.760,11.562 82.799,11.719 82.739 C 11.869 82.681,11.996 82.790,12.064 83.032 C 12.163 83.384,12.187 83.392,12.346 83.121 C 12.442 82.959,12.596 82.873,12.688 82.930 C 12.792 82.994,12.765 83.136,12.615 83.308 C 12.483 83.460,12.395 83.702,12.419 83.847 C 12.443 83.992,12.362 84.111,12.239 84.111 C 12.115 84.111,12.053 84.049,12.101 83.972 C 12.148 83.896,12.107 83.833,12.010 83.833 C 11.913 83.833,11.833 83.901,11.833 83.984 C 11.833 84.067,11.684 84.096,11.502 84.049 C 11.320 84.001,11.208 83.902,11.253 83.829 C 11.298 83.755,11.241 83.657,11.126 83.611 C 11.000 83.560,11.032 83.521,11.208 83.513 C 11.583 83.496,11.575 83.398,11.159 82.870 C 10.826 82.446,10.817 82.444,10.726 82.790 C 10.622 83.191,10.167 83.121,10.167 82.704 C 10.167 82.561,10.216 82.494,10.276 82.554 C 10.337 82.614,10.487 82.580,10.610 82.478 C 10.776 82.340,10.903 82.351,11.107 82.520 C 11.352 82.723,11.370 82.703,11.276 82.332 C 11.217 82.104,11.214 82.014,11.268 82.132 C 11.340 82.291,11.424 82.299,11.586 82.164 M11.045 83.424 C 10.655 83.709,10.459 83.561,10.705 83.167 C 10.853 82.931,10.958 82.896,11.120 83.030 C 11.295 83.176,11.281 83.252,11.045 83.424 M11.623 83.481 C 11.559 83.725,11.626 83.790,11.921 83.773 C 12.228 83.754,12.271 83.695,12.144 83.458 C 11.941 83.078,11.726 83.088,11.623 83.481 " stroke="none" fill="#5394cd" fill-rule="evenodd"></path>
		<path id="path3" d="M78.019 4.853 C 78.259 4.941,78.535 5.179,78.633 5.381 C 78.770 5.665,78.813 5.685,78.822 5.468 C 78.835 5.149,78.224 4.660,77.838 4.680 C 77.698 4.687,77.779 4.765,78.019 4.853 M66.744 6.007 C 66.473 6.306,66.470 6.334,66.718 6.239 C 66.873 6.180,67.000 6.060,67.000 5.972 C 67.000 5.885,67.087 5.867,67.192 5.933 C 67.312 6.006,67.340 5.978,67.266 5.859 C 67.110 5.607,67.103 5.609,66.744 6.007 M64.833 6.990 C 64.833 7.179,64.767 7.333,64.686 7.333 C 64.605 7.333,64.422 7.511,64.279 7.729 C 64.030 8.109,64.036 8.125,64.430 8.125 C 64.980 8.125,65.405 7.000,64.958 6.724 C 64.890 6.682,64.833 6.801,64.833 6.990 M55.490 12.245 C 54.978 12.524,54.541 13.333,54.903 13.333 C 55.028 13.333,55.382 13.099,55.688 12.814 C 55.994 12.528,56.395 12.233,56.580 12.158 C 56.865 12.042,56.840 12.021,56.417 12.017 C 56.142 12.015,55.725 12.118,55.490 12.245 M56.167 13.036 C 55.802 13.195,55.789 13.227,56.061 13.291 C 56.233 13.332,56.492 13.246,56.639 13.099 C 56.943 12.796,56.771 12.773,56.167 13.036 M84.500 15.399 C 84.500 15.442,84.744 15.648,85.042 15.857 C 85.426 16.127,85.515 16.151,85.347 15.943 C 85.109 15.646,84.500 15.255,84.500 15.399 M45.383 16.559 C 45.310 16.683,45.141 16.819,45.008 16.862 C 44.806 16.926,44.809 16.955,45.029 17.040 C 45.204 17.106,45.354 17.005,45.476 16.737 C 45.671 16.307,45.606 16.182,45.383 16.559 M85.846 17.375 C 85.839 17.535,85.683 17.817,85.500 18.000 C 85.317 18.183,85.240 18.333,85.329 18.333 C 85.574 18.333,86.044 17.542,85.945 17.297 C 85.892 17.163,85.855 17.192,85.846 17.375 M82.479 24.833 C 82.438 25.165,82.409 25.254,82.265 25.500 C 82.146 25.702,82.160 25.711,82.340 25.544 C 82.558 25.342,82.744 24.667,82.582 24.667 C 82.537 24.667,82.491 24.742,82.479 24.833 M55.833 28.177 C 55.833 28.274,55.759 28.307,55.669 28.251 C 55.574 28.193,55.546 28.260,55.603 28.408 C 55.744 28.776,56.000 28.728,56.000 28.333 C 56.000 28.150,55.962 28.000,55.917 28.000 C 55.871 28.000,55.833 28.079,55.833 28.177 M55.072 28.518 C 54.997 28.640,55.019 28.675,55.129 28.606 C 55.229 28.545,55.348 28.556,55.394 28.631 C 55.441 28.705,55.296 28.767,55.073 28.767 C 54.849 28.767,54.667 28.718,54.667 28.659 C 54.667 28.332,52.390 28.495,52.075 28.844 C 51.896 29.041,51.319 29.506,50.792 29.876 C 50.265 30.246,49.833 30.616,49.833 30.698 C 49.833 30.833,47.659 33.049,46.652 33.939 C 46.431 34.135,46.063 34.514,45.833 34.781 C 45.604 35.048,45.214 35.393,44.966 35.549 C 44.421 35.890,43.786 37.802,43.853 38.897 C 43.877 39.282,43.840 39.688,43.772 39.798 C 43.680 39.946,43.873 40.000,44.490 40.000 L 45.333 40.000 45.333 40.570 C 45.333 41.538,45.452 41.667,46.342 41.667 L 47.149 41.667 47.200 42.542 L 47.250 43.417 48.025 43.467 C 48.801 43.517,49.121 43.975,49.056 44.940 C 49.048 45.061,49.231 45.101,49.555 45.050 C 51.033 44.817,52.642 45.323,53.810 46.388 C 59.207 51.303,60.833 53.298,60.833 55.000 C 60.833 55.596,60.907 55.872,61.083 55.940 C 61.291 56.019,61.333 56.484,61.333 58.684 L 61.333 61.333 60.125 61.336 C 58.608 61.339,58.151 61.560,57.892 62.419 C 57.735 62.942,57.690 62.994,57.679 62.662 C 57.658 61.963,57.198 61.458,56.655 61.537 C 56.396 61.575,56.222 61.545,56.269 61.470 C 56.432 61.205,54.221 61.317,53.999 61.585 C 53.884 61.723,53.482 61.886,53.105 61.946 C 51.694 62.171,44.500 69.590,44.500 70.819 C 44.500 71.501,44.113 72.090,43.794 71.892 C 43.520 71.723,43.772 73.010,44.072 73.310 C 44.240 73.478,44.785 73.583,45.744 73.634 L 47.167 73.708 47.167 74.503 C 47.167 75.474,47.220 75.500,49.180 75.500 L 50.667 75.500 50.667 76.051 C 50.667 77.271,50.545 77.243,56.236 77.308 L 61.333 77.366 61.334 77.975 C 61.335 79.129,61.858 80.227,62.507 80.437 C 62.996 80.595,63.110 80.732,63.261 81.340 C 63.492 82.272,63.834 82.476,65.385 82.607 L 66.667 82.716 66.669 83.316 C 66.674 84.389,66.369 84.342,72.928 84.294 L 78.917 84.250 79.000 83.500 C 79.076 82.812,79.125 82.746,79.583 82.697 C 81.224 82.523,82.333 81.891,82.333 81.130 C 82.333 80.967,82.408 80.833,82.500 80.833 C 82.592 80.833,82.667 80.726,82.667 80.595 C 82.667 80.463,82.819 80.308,83.004 80.249 C 83.190 80.190,83.466 79.941,83.618 79.696 C 83.769 79.451,84.000 79.161,84.131 79.052 C 84.296 78.914,84.395 78.327,84.457 77.110 L 84.546 75.366 85.016 75.272 C 85.817 75.112,86.031 74.556,86.059 72.571 L 86.083 70.802 85.292 70.134 C 84.537 69.497,84.500 69.425,84.499 68.608 C 84.495 66.283,84.121 65.236,83.233 65.069 C 82.719 64.973,82.667 64.910,82.667 64.387 C 82.667 63.443,82.425 63.167,81.599 63.167 C 80.888 63.167,80.874 63.156,80.773 62.522 C 80.627 61.612,80.344 61.450,78.757 61.366 L 77.372 61.294 77.295 57.522 C 77.249 55.268,77.141 53.564,77.028 53.287 C 76.835 52.816,76.764 52.771,75.958 52.594 L 75.500 52.494 75.500 50.826 C 75.500 49.011,75.390 48.833,74.265 48.833 C 73.916 48.833,73.869 48.721,73.691 47.463 C 73.479 45.959,73.311 45.690,72.477 45.513 C 71.983 45.409,71.921 45.337,71.953 44.906 C 71.973 44.637,71.936 44.492,71.870 44.583 C 71.636 44.909,70.477 44.870,70.102 44.524 C 69.909 44.345,69.476 44.124,69.141 44.034 C 68.677 43.908,67.913 43.247,65.942 41.268 C 64.518 39.837,63.273 38.667,63.175 38.667 C 63.077 38.667,62.766 38.292,62.484 37.833 C 62.202 37.375,61.922 36.998,61.861 36.995 C 61.455 36.975,61.145 36.452,61.067 35.654 C 60.983 34.800,60.587 34.186,60.099 34.155 C 59.999 34.149,60.067 34.084,60.250 34.012 C 60.541 33.897,60.515 33.865,60.042 33.760 C 59.479 33.635,59.280 33.319,59.792 33.362 C 59.952 33.375,60.233 33.373,60.417 33.357 C 60.872 33.318,60.406 33.006,59.886 33.003 C 59.530 33.000,59.473 32.905,59.263 31.960 C 59.180 31.587,59.025 31.469,58.418 31.316 C 57.756 31.150,57.663 31.067,57.568 30.560 C 57.450 29.932,56.964 29.500,56.375 29.500 C 56.129 29.500,55.940 29.364,55.847 29.118 C 55.640 28.574,55.233 28.258,55.072 28.518 M32.846 28.947 C 32.838 29.185,32.705 29.335,32.458 29.382 L 32.083 29.455 32.464 29.477 C 32.858 29.501,33.094 29.168,32.946 28.797 C 32.898 28.680,32.854 28.747,32.846 28.947 M31.382 29.575 C 31.225 29.754,31.230 29.822,31.408 29.890 C 31.673 29.992,31.833 29.866,31.833 29.556 C 31.833 29.273,31.640 29.281,31.382 29.575 M76.757 37.146 C 76.698 37.331,76.498 37.531,76.312 37.590 C 76.127 37.649,76.007 37.730,76.047 37.769 C 76.087 37.809,76.244 37.793,76.397 37.734 C 76.695 37.620,77.081 37.025,76.945 36.890 C 76.900 36.845,76.816 36.960,76.757 37.146 M39.211 44.655 C 38.883 44.929,38.871 44.979,39.115 45.073 C 39.268 45.131,39.473 45.082,39.572 44.964 C 39.671 44.847,39.681 44.806,39.593 44.875 C 39.258 45.137,39.129 44.985,39.417 44.667 C 39.792 44.251,39.701 44.246,39.211 44.655 M76.691 53.707 C 76.521 53.876,76.502 53.858,76.594 53.618 C 76.656 53.454,76.642 53.332,76.562 53.346 C 76.263 53.401,76.150 53.328,76.260 53.151 C 76.337 53.026,76.457 53.053,76.638 53.233 C 76.851 53.446,76.862 53.538,76.691 53.707 M85.495 74.259 C 85.327 74.573,84.500 75.127,84.500 74.926 C 84.500 74.889,84.725 74.634,85.000 74.359 C 85.294 74.065,85.510 73.665,85.525 73.388 L 85.550 72.917 85.622 73.402 C 85.662 73.669,85.605 74.054,85.495 74.259 M82.167 80.928 C 82.167 81.215,81.761 81.696,81.328 81.919 C 80.698 82.245,80.620 81.832,81.196 81.219 C 81.518 80.876,82.167 80.681,82.167 80.928 " stroke="none" fill="#f54424" fill-rule="evenodd"></path>
		<path id="path4" d="M49.020 45.380 C 48.917 45.483,48.836 45.645,48.839 45.742 C 48.842 45.838,48.954 45.771,49.089 45.593 C 49.350 45.248,49.427 45.428,49.183 45.813 C 49.103 45.939,48.951 45.989,48.845 45.924 C 48.511 45.718,47.855 46.305,47.649 46.994 C 47.540 47.358,47.405 47.627,47.349 47.593 C 47.178 47.487,46.167 47.972,46.167 48.159 C 46.167 48.255,46.004 48.496,45.804 48.696 C 45.511 48.989,45.499 49.036,45.740 48.944 C 45.956 48.861,46.012 48.895,45.946 49.068 C 45.801 49.446,46.273 49.510,46.593 49.156 C 46.792 48.936,46.946 48.886,47.080 48.997 C 47.225 49.118,47.271 49.003,47.257 48.561 C 47.243 48.161,47.322 47.932,47.493 47.868 C 47.870 47.730,48.011 47.446,47.783 47.284 C 47.667 47.201,47.834 47.183,48.181 47.240 C 48.667 47.320,48.862 47.262,49.218 46.931 L 49.657 46.525 49.204 46.359 C 48.758 46.196,48.757 46.193,49.153 46.180 C 49.374 46.173,49.508 46.119,49.450 46.061 C 49.392 46.004,49.416 45.824,49.503 45.661 C 49.692 45.307,49.314 45.086,49.020 45.380 M15.442 45.529 C 15.291 45.614,15.167 45.759,15.167 45.851 C 15.167 45.944,15.250 45.968,15.352 45.905 C 15.454 45.842,15.595 45.883,15.664 45.996 C 15.742 46.122,15.933 46.158,16.155 46.087 C 16.432 45.999,16.475 45.920,16.335 45.752 C 16.201 45.590,16.209 45.513,16.368 45.457 C 16.486 45.416,16.389 45.380,16.150 45.378 C 15.912 45.376,15.594 45.444,15.442 45.529 M16.129 45.802 C 16.169 45.924,16.093 45.961,15.931 45.899 C 15.785 45.843,15.667 45.724,15.667 45.635 C 15.667 45.416,16.045 45.553,16.129 45.802 M16.353 46.875 C 16.368 47.176,16.388 47.190,16.451 46.946 C 16.497 46.767,16.626 46.679,16.765 46.733 C 16.894 46.782,17.000 46.750,17.000 46.661 C 17.000 46.573,16.850 46.500,16.667 46.500 C 16.426 46.500,16.339 46.605,16.353 46.875 M52.167 47.260 C 52.167 47.414,52.088 47.471,51.974 47.401 C 51.855 47.327,51.827 47.355,51.901 47.474 C 52.091 47.782,52.427 47.697,52.454 47.333 C 52.468 47.150,52.409 47.000,52.323 47.000 C 52.237 47.000,52.167 47.117,52.167 47.260 M14.167 47.312 C 14.167 47.405,14.242 47.527,14.333 47.583 C 14.425 47.640,14.500 47.607,14.500 47.510 C 14.500 47.413,14.568 47.333,14.651 47.333 C 14.734 47.333,14.763 47.483,14.715 47.667 C 14.666 47.853,14.710 48.000,14.814 48.000 C 14.916 48.000,15.037 48.000,15.083 48.000 C 15.129 48.000,15.148 47.944,15.125 47.875 C 15.102 47.806,15.024 47.770,14.950 47.794 C 14.877 47.819,14.840 47.706,14.867 47.544 C 14.900 47.347,14.794 47.233,14.542 47.197 C 14.335 47.167,14.167 47.219,14.167 47.312 M13.662 47.589 C 13.547 47.728,13.490 47.879,13.536 47.925 C 13.653 48.042,14.167 47.826,14.167 47.659 C 14.167 47.383,13.867 47.342,13.662 47.589 M18.482 48.345 C 18.271 48.561,18.253 48.692,18.398 48.954 C 18.586 49.293,19.193 49.336,19.299 49.018 C 19.330 48.927,19.463 48.893,19.594 48.944 C 19.726 48.994,19.833 48.988,19.833 48.930 C 19.833 48.872,19.641 48.752,19.407 48.663 C 19.147 48.564,19.027 48.425,19.099 48.308 C 19.170 48.194,19.145 48.160,19.040 48.225 C 18.942 48.286,18.837 48.276,18.806 48.202 C 18.775 48.129,18.629 48.193,18.482 48.345 M13.687 48.317 C 13.561 48.397,13.509 48.546,13.572 48.648 C 13.635 48.750,13.588 48.834,13.468 48.836 C 13.310 48.838,13.318 48.883,13.500 49.000 C 13.722 49.144,13.722 49.162,13.500 49.167 C 13.203 49.173,13.612 49.495,13.917 49.495 C 14.008 49.495,13.983 49.431,13.861 49.354 C 13.738 49.276,13.638 49.155,13.638 49.083 C 13.638 49.012,13.738 48.890,13.861 48.813 C 14.041 48.699,14.042 48.671,13.865 48.669 C 13.745 48.668,13.694 48.590,13.752 48.497 C 13.809 48.404,13.938 48.378,14.037 48.440 C 14.145 48.506,14.170 48.474,14.099 48.359 C 13.959 48.132,13.977 48.133,13.687 48.317 M14.429 48.677 C 14.253 48.854,14.185 49.000,14.278 49.000 C 14.372 49.000,14.584 48.850,14.750 48.667 C 15.137 48.239,14.854 48.248,14.429 48.677 M44.643 49.419 C 44.400 49.551,44.119 49.898,44.017 50.190 C 43.775 50.883,43.893 50.994,44.168 50.331 C 44.285 50.049,44.595 49.707,44.857 49.571 C 45.315 49.334,45.470 49.159,45.208 49.173 C 45.140 49.177,44.885 49.288,44.643 49.419 M44.667 50.000 C 44.330 50.337,44.201 50.768,44.490 50.590 C 44.576 50.536,44.717 50.619,44.802 50.772 C 44.914 50.971,45.049 51.012,45.271 50.913 C 45.557 50.787,45.550 50.769,45.195 50.707 C 44.814 50.641,44.812 50.633,45.111 50.278 L 45.417 49.917 45.042 50.234 C 44.835 50.409,44.667 50.469,44.667 50.369 C 44.667 50.268,44.833 50.069,45.037 49.926 C 45.241 49.783,45.316 49.667,45.204 49.667 C 45.092 49.667,44.850 49.817,44.667 50.000 M13.042 50.672 C 12.835 50.755,12.667 50.902,12.667 50.998 C 12.667 51.096,12.852 51.053,13.083 50.901 C 13.313 50.751,13.500 50.599,13.500 50.564 C 13.500 50.486,13.507 50.485,13.042 50.672 M12.042 50.951 C 11.927 50.993,11.833 51.105,11.833 51.198 C 11.833 51.292,11.950 51.324,12.092 51.270 C 12.240 51.213,12.307 51.241,12.249 51.335 C 12.193 51.426,12.039 51.500,11.907 51.500 C 11.775 51.500,11.667 51.578,11.667 51.673 C 11.667 51.876,12.249 51.604,12.426 51.318 C 12.567 51.090,12.317 50.851,12.042 50.951 M12.574 51.848 C 12.335 52.236,12.781 52.334,13.096 51.962 L 13.417 51.583 13.013 51.917 C 12.660 52.208,12.623 52.214,12.717 51.958 C 12.835 51.634,12.748 51.567,12.574 51.848 M57.333 52.429 C 57.333 52.481,57.446 52.636,57.583 52.774 C 57.806 52.996,57.833 52.985,57.833 52.679 C 57.833 52.483,57.725 52.333,57.583 52.333 C 57.446 52.333,57.333 52.376,57.333 52.429 M11.792 53.774 C 12.031 53.874,12.077 54.333,11.847 54.333 C 11.763 54.333,11.657 54.240,11.610 54.125 C 11.564 54.010,11.526 54.254,11.525 54.667 C 11.524 55.209,11.561 55.325,11.658 55.083 C 11.731 54.900,11.764 54.702,11.730 54.642 C 11.696 54.583,11.781 54.492,11.918 54.439 C 12.055 54.387,12.169 54.210,12.173 54.047 C 12.177 53.815,12.231 53.841,12.417 54.167 C 12.548 54.396,12.656 54.508,12.658 54.417 C 12.665 54.086,12.353 53.774,11.972 53.731 C 11.758 53.707,11.677 53.727,11.792 53.774 M59.083 54.306 C 58.895 54.494,59.020 54.650,59.292 54.567 C 59.452 54.517,59.396 54.592,59.167 54.733 C 58.938 54.873,58.852 54.991,58.976 54.994 C 59.115 54.998,59.162 55.104,59.099 55.269 C 59.027 55.457,59.068 55.509,59.237 55.445 C 59.406 55.380,59.459 55.449,59.415 55.676 C 59.368 55.920,59.443 55.997,59.718 55.987 C 59.919 55.980,59.990 55.936,59.875 55.890 C 59.749 55.839,59.667 55.491,59.667 55.014 C 59.667 54.279,59.415 53.974,59.083 54.306 M27.090 56.155 C 27.038 56.240,27.071 56.357,27.164 56.415 C 27.427 56.578,27.364 56.786,27.025 56.875 C 26.713 56.957,26.405 57.667,26.682 57.667 C 26.765 57.667,26.833 57.517,26.833 57.333 C 26.833 57.111,26.944 57.000,27.167 57.000 C 27.522 57.000,27.623 56.596,27.316 56.406 C 27.187 56.326,27.200 56.248,27.357 56.148 C 27.509 56.053,27.518 56.004,27.385 56.003 C 27.276 56.001,27.143 56.070,27.090 56.155 M11.523 58.625 C 11.510 59.748,11.556 60.667,11.625 60.667 C 11.694 60.667,11.729 59.898,11.703 58.958 C 11.634 56.449,11.549 56.291,11.523 58.625 M58.898 57.030 C 58.850 57.108,58.733 57.124,58.639 57.066 C 58.534 57.001,58.541 57.098,58.656 57.313 C 58.930 57.826,59.339 57.698,59.435 57.069 C 59.467 56.857,59.025 56.825,58.898 57.030 M22.083 57.333 C 21.920 57.822,21.971 59.144,22.166 59.492 C 22.366 59.850,22.542 58.024,22.366 57.417 L 22.221 56.917 22.083 57.333 M59.184 57.383 C 58.970 57.597,58.753 57.431,58.911 57.175 C 58.973 57.076,59.099 57.042,59.193 57.099 C 59.307 57.170,59.304 57.263,59.184 57.383 M57.597 57.912 C 57.653 58.220,57.611 58.302,57.432 58.233 C 57.297 58.181,57.118 58.279,57.022 58.459 C 56.893 58.700,56.906 58.778,57.076 58.778 C 57.200 58.778,57.266 58.685,57.223 58.572 C 57.177 58.454,57.265 58.377,57.431 58.392 C 57.613 58.408,57.764 58.249,57.845 57.958 C 57.937 57.623,57.911 57.500,57.747 57.500 C 57.599 57.500,57.548 57.641,57.597 57.912 M56.333 58.843 C 56.333 58.940,56.271 58.981,56.194 58.934 C 56.118 58.887,56.056 58.945,56.056 59.063 C 56.056 59.399,56.430 59.315,56.456 58.972 C 56.469 58.804,56.446 58.667,56.406 58.667 C 56.366 58.667,56.333 58.746,56.333 58.843 M54.375 60.777 C 54.260 60.823,54.169 60.986,54.172 61.139 C 54.176 61.387,54.195 61.386,54.349 61.121 C 54.443 60.959,54.602 60.877,54.703 60.939 C 54.812 61.006,54.837 60.974,54.766 60.859 C 54.701 60.753,54.633 60.673,54.615 60.680 C 54.598 60.687,54.490 60.731,54.375 60.777 M10.000 61.511 C 10.000 61.607,10.067 61.645,10.148 61.595 C 10.229 61.545,10.388 61.615,10.502 61.752 C 10.615 61.888,10.792 61.999,10.895 61.997 C 11.009 61.996,10.995 61.939,10.861 61.854 C 10.738 61.776,10.663 61.654,10.694 61.581 C 10.725 61.509,10.581 61.424,10.375 61.393 C 10.169 61.361,10.000 61.414,10.000 61.511 M27.394 61.582 C 27.341 61.719,27.220 61.783,27.123 61.723 C 27.024 61.662,26.998 61.695,27.063 61.800 C 27.126 61.902,27.300 61.938,27.449 61.881 C 27.631 61.811,27.681 61.841,27.601 61.972 C 27.535 62.079,27.560 62.167,27.657 62.167 C 27.754 62.167,27.833 62.246,27.833 62.343 C 27.833 62.440,27.758 62.473,27.667 62.417 C 27.575 62.360,27.494 62.374,27.487 62.448 C 27.480 62.523,27.449 62.715,27.419 62.876 C 27.388 63.037,27.432 63.125,27.517 63.073 C 27.602 63.020,27.633 62.914,27.585 62.836 C 27.537 62.759,27.592 62.664,27.707 62.625 C 27.822 62.587,27.917 62.328,27.917 62.049 C 27.917 61.681,27.852 61.567,27.681 61.633 C 27.531 61.690,27.489 61.653,27.566 61.528 C 27.632 61.421,27.642 61.333,27.588 61.333 C 27.534 61.333,27.447 61.445,27.394 61.582 M28.290 61.484 C 28.312 61.522,28.247 61.653,28.145 61.776 C 28.043 61.899,28.025 62.006,28.105 62.013 C 28.568 62.053,28.899 62.167,29.063 62.342 C 29.208 62.496,29.165 62.497,28.875 62.348 C 28.610 62.211,28.500 62.208,28.500 62.337 C 28.500 62.438,28.413 62.466,28.308 62.401 C 28.191 62.329,28.160 62.355,28.230 62.467 C 28.293 62.569,28.454 62.610,28.589 62.558 C 28.723 62.507,28.833 62.541,28.833 62.635 C 28.833 62.729,28.740 62.837,28.626 62.875 C 28.478 62.924,28.501 63.025,28.710 63.234 C 28.986 63.509,29.000 63.509,29.003 63.220 C 29.005 62.986,29.038 62.969,29.148 63.143 C 29.236 63.282,29.331 63.305,29.395 63.202 C 29.452 63.110,29.369 62.986,29.212 62.925 C 28.971 62.833,28.964 62.792,29.166 62.667 C 29.554 62.427,29.865 62.792,29.643 63.226 C 29.497 63.510,29.502 63.543,29.667 63.388 C 29.781 63.281,29.977 63.232,30.104 63.281 C 30.230 63.329,30.333 63.299,30.333 63.214 C 30.333 63.006,29.608 62.333,29.384 62.333 C 29.286 62.333,28.991 62.127,28.728 61.874 C 28.465 61.621,28.268 61.446,28.290 61.484 M32.111 61.444 C 32.050 61.506,32.000 61.670,32.000 61.810 C 32.000 62.011,32.047 62.000,32.225 61.757 C 32.477 61.412,32.785 61.678,32.554 62.042 C 32.481 62.156,32.421 62.300,32.419 62.361 C 32.418 62.422,32.348 62.535,32.265 62.611 C 32.175 62.693,32.169 62.654,32.249 62.516 C 32.334 62.369,32.321 62.321,32.213 62.388 C 31.671 62.723,31.886 63.111,32.606 63.097 C 33.006 63.090,33.333 63.070,33.333 63.054 C 33.333 63.037,33.209 62.899,33.056 62.747 C 32.866 62.557,32.837 62.434,32.964 62.355 C 33.080 62.284,33.093 62.151,33.001 62.001 C 32.910 61.854,32.921 61.678,33.030 61.547 C 33.221 61.317,32.337 61.218,32.111 61.444 M29.222 61.752 C 29.222 61.871,29.309 61.935,29.414 61.895 C 29.665 61.798,30.500 62.458,30.500 62.752 C 30.500 62.878,30.583 63.032,30.685 63.094 C 30.940 63.252,30.702 62.502,30.381 62.136 C 30.031 61.737,29.222 61.470,29.222 61.752 M31.329 61.928 C 31.047 62.671,31.250 63.207,31.599 62.641 C 31.677 62.514,31.638 62.490,31.484 62.570 C 31.355 62.637,31.396 62.573,31.574 62.429 C 31.796 62.249,31.824 62.167,31.665 62.167 C 31.485 62.167,31.478 62.122,31.633 61.967 C 31.878 61.722,31.892 61.500,31.663 61.500 C 31.569 61.500,31.419 61.692,31.329 61.928 M9.054 61.865 C 8.679 62.046,8.209 62.931,8.392 63.114 C 8.678 63.400,9.910 63.245,9.962 62.917 C 10.008 62.620,9.989 62.613,9.798 62.848 C 9.680 62.994,9.486 63.080,9.368 63.040 C 9.061 62.937,9.446 62.500,9.844 62.500 C 10.293 62.500,10.410 62.178,10.058 61.911 C 9.696 61.636,9.541 61.629,9.054 61.865 M9.880 61.935 C 9.936 61.991,9.760 62.223,9.490 62.450 C 9.220 62.678,9.041 62.932,9.093 63.015 C 9.209 63.204,8.990 63.208,8.698 63.023 C 8.528 62.915,8.579 62.765,8.921 62.359 C 9.344 61.856,9.660 61.716,9.880 61.935 M6.833 63.329 C 6.833 63.434,6.747 63.466,6.641 63.401 C 6.522 63.327,6.494 63.355,6.567 63.474 C 6.633 63.580,6.618 63.667,6.535 63.667 C 6.452 63.667,6.384 63.910,6.383 64.208 C 6.383 64.506,6.413 64.626,6.450 64.475 C 6.536 64.128,7.167 63.939,7.167 64.260 C 7.167 64.396,7.064 64.450,6.915 64.393 C 6.735 64.324,6.692 64.373,6.766 64.565 C 6.823 64.712,6.992 64.840,7.143 64.847 C 7.293 64.855,7.614 64.893,7.856 64.934 C 8.156 64.983,8.328 64.920,8.400 64.735 C 8.479 64.528,8.434 64.490,8.215 64.574 C 8.057 64.634,7.980 64.631,8.045 64.566 C 8.110 64.501,8.085 64.353,7.990 64.237 C 7.855 64.076,7.921 64.039,8.275 64.078 C 8.704 64.125,8.713 64.113,8.419 63.897 C 8.245 63.771,8.192 63.667,8.301 63.667 C 8.411 63.667,8.500 63.580,8.500 63.474 C 8.500 63.359,8.377 63.393,8.195 63.558 C 7.862 63.859,7.636 63.773,7.779 63.400 C 7.829 63.272,7.793 63.167,7.699 63.167 C 7.606 63.167,7.550 63.354,7.575 63.583 C 7.601 63.820,7.535 64.000,7.422 64.000 C 7.313 64.000,7.229 63.839,7.237 63.642 C 7.244 63.445,7.156 63.251,7.042 63.211 C 6.927 63.171,6.833 63.225,6.833 63.329 M7.090 63.822 C 7.030 63.920,6.858 64.000,6.708 64.000 C 6.481 64.000,6.489 63.961,6.760 63.764 C 7.109 63.508,7.267 63.536,7.090 63.822 M5.554 65.365 C 5.064 65.601,4.711 66.445,4.986 66.718 C 5.142 66.872,5.225 66.851,5.354 66.621 C 5.446 66.459,5.582 66.365,5.658 66.411 C 5.855 66.533,6.229 66.033,6.291 65.565 C 6.349 65.132,6.148 65.077,5.554 65.365 M5.907 65.764 C 5.597 66.016,5.597 66.023,5.899 65.926 C 6.169 65.840,6.183 65.863,5.997 66.087 C 5.842 66.274,5.745 66.294,5.661 66.158 C 5.582 66.030,5.453 66.095,5.271 66.353 C 5.122 66.567,5.000 66.646,5.000 66.530 C 5.000 66.258,5.754 65.500,6.024 65.500 C 6.138 65.500,6.086 65.618,5.907 65.764 M9.525 66.053 C 9.421 66.178,9.392 66.342,9.460 66.417 C 9.528 66.492,9.495 66.503,9.387 66.441 C 9.020 66.231,8.986 66.652,9.341 67.007 C 9.712 67.379,10.333 67.113,10.333 66.583 C 10.333 66.191,9.736 65.799,9.525 66.053 M30.083 66.500 L 29.083 66.611 30.218 66.639 C 30.939 66.656,31.315 66.606,31.250 66.500 C 31.193 66.408,31.133 66.346,31.115 66.361 C 31.098 66.377,30.633 66.439,30.083 66.500 M4.567 67.576 C 4.567 67.895,4.615 67.945,4.785 67.804 C 4.950 67.667,4.958 67.566,4.815 67.395 C 4.568 67.097,4.567 67.098,4.567 67.576 M43.243 70.051 C 43.060 70.240,43.305 71.333,43.530 71.333 C 43.637 71.333,43.579 70.017,43.468 69.918 C 43.440 69.893,43.339 69.953,43.243 70.051 M42.734 72.423 C 42.787 72.783,42.948 72.875,43.052 72.604 C 43.104 72.470,43.045 72.322,42.923 72.275 C 42.795 72.226,42.714 72.290,42.734 72.423 M43.000 73.442 C 42.600 73.653,42.598 73.662,42.948 73.664 C 43.149 73.666,43.363 73.587,43.424 73.489 C 43.592 73.216,43.457 73.201,43.000 73.442 M40.402 73.458 C 40.519 73.665,40.320 73.740,39.842 73.672 C 39.649 73.644,39.642 73.686,39.804 73.881 C 39.915 74.015,39.963 74.237,39.910 74.374 C 39.848 74.535,39.941 74.656,40.174 74.717 C 40.395 74.775,40.487 74.886,40.413 75.007 C 40.323 75.152,40.250 75.144,40.130 74.976 C 40.005 74.801,39.989 74.814,40.058 75.031 C 40.108 75.185,40.058 75.348,39.949 75.393 C 39.799 75.454,39.798 75.477,39.946 75.487 C 40.299 75.510,40.697 74.988,40.504 74.754 C 40.195 74.383,40.696 74.139,41.087 74.470 C 41.270 74.624,41.388 74.732,41.350 74.710 C 41.242 74.647,40.833 75.024,40.833 75.187 C 40.833 75.416,41.117 75.359,41.405 75.071 C 41.817 74.660,41.747 74.178,41.292 74.291 L 40.917 74.385 41.254 74.067 C 41.439 73.893,41.518 73.806,41.429 73.875 C 41.340 73.944,41.156 74.000,41.021 74.000 C 40.887 74.000,40.643 74.120,40.480 74.268 C 40.207 74.515,40.186 74.512,40.208 74.226 C 40.223 74.026,40.371 73.908,40.626 73.892 C 41.147 73.859,41.279 73.708,41.006 73.456 C 40.830 73.292,40.809 73.293,40.902 73.458 C 40.967 73.573,40.955 73.667,40.877 73.667 C 40.798 73.667,40.632 73.573,40.509 73.458 C 40.329 73.292,40.308 73.292,40.402 73.458 M37.845 75.597 C 37.933 75.704,37.954 75.925,37.891 76.090 C 37.819 76.279,37.841 76.348,37.952 76.280 C 38.288 76.072,38.313 75.356,37.983 75.380 C 37.775 75.396,37.733 75.462,37.845 75.597 M37.098 75.725 C 37.171 75.917,37.127 76.089,36.983 76.181 C 36.809 76.291,36.804 76.329,36.964 76.331 C 37.268 76.334,37.414 75.848,37.179 75.614 C 37.026 75.462,37.007 75.487,37.098 75.725 M37.449 76.441 C 37.558 76.485,37.604 76.635,37.551 76.775 C 37.482 76.955,37.419 76.972,37.333 76.833 C 37.249 76.696,37.183 76.717,37.112 76.903 C 36.983 77.238,37.330 77.247,37.760 76.920 C 38.087 76.670,37.877 76.320,37.417 76.349 C 37.325 76.355,37.340 76.396,37.449 76.441 M29.082 77.003 C 29.024 77.096,28.908 77.129,28.823 77.077 C 28.739 77.025,28.537 77.059,28.376 77.153 C 28.167 77.274,28.801 77.322,30.583 77.318 C 31.958 77.315,32.933 77.254,32.750 77.183 C 32.567 77.113,31.691 77.064,30.804 77.075 C 29.917 77.086,29.228 77.036,29.272 76.964 C 29.317 76.892,29.316 76.833,29.270 76.833 C 29.224 76.833,29.139 76.910,29.082 77.003 M34.765 77.024 C 34.846 77.156,34.745 77.189,34.437 77.130 C 34.192 77.083,33.952 77.110,33.903 77.189 C 33.854 77.268,34.116 77.333,34.485 77.333 C 35.013 77.333,35.136 77.280,35.060 77.083 C 35.008 76.946,34.893 76.833,34.806 76.833 C 34.718 76.833,34.700 76.919,34.765 77.024 M5.175 77.828 C 4.982 77.948,4.977 78.022,5.150 78.230 C 5.404 78.536,5.231 78.894,4.891 78.763 C 4.756 78.711,4.694 78.743,4.751 78.835 C 4.918 79.106,5.143 79.025,5.426 78.592 C 5.737 78.118,5.563 77.589,5.175 77.828 M27.013 78.361 C 27.006 78.514,27.094 78.673,27.208 78.714 C 27.323 78.756,27.192 78.882,26.917 78.996 C 26.005 79.372,25.917 79.447,25.864 79.892 C 25.835 80.135,25.706 80.333,25.577 80.333 C 25.424 80.333,25.382 80.433,25.454 80.625 C 25.559 80.902,25.550 80.902,25.272 80.626 C 25.111 80.467,25.025 80.261,25.081 80.170 C 25.139 80.076,25.077 80.045,24.938 80.098 C 24.803 80.150,24.655 80.290,24.609 80.409 C 24.557 80.546,24.359 80.593,24.069 80.538 C 23.695 80.467,23.631 80.501,23.717 80.725 C 23.775 80.876,23.750 81.000,23.661 81.000 C 23.573 81.000,23.500 81.164,23.500 81.365 C 23.500 81.724,23.505 81.724,23.768 81.407 C 24.019 81.105,24.020 81.111,23.790 81.500 C 23.533 81.934,23.228 81.934,23.279 81.500 C 23.300 81.323,23.239 81.345,23.071 81.574 C 22.940 81.751,22.834 81.976,22.836 82.074 C 22.837 82.171,22.911 82.137,23.000 82.000 C 23.089 81.862,23.163 81.835,23.164 81.939 C 23.167 82.176,23.790 82.352,23.896 82.145 C 23.940 82.061,23.956 82.086,23.933 82.202 C 23.908 82.325,23.597 82.425,23.180 82.443 C 22.790 82.460,22.421 82.527,22.360 82.593 C 22.264 82.697,22.640 82.675,24.888 82.444 C 25.381 82.394,25.678 82.089,25.647 81.667 C 25.587 80.858,25.672 80.667,26.091 80.667 C 26.324 80.667,26.699 80.483,26.924 80.258 C 27.362 79.820,27.467 79.335,27.125 79.331 C 26.961 79.329,26.962 79.299,27.129 79.194 C 27.246 79.119,27.373 78.894,27.412 78.692 C 27.451 78.490,27.418 78.364,27.339 78.413 C 27.260 78.462,27.157 78.408,27.111 78.293 C 27.058 78.161,27.021 78.186,27.013 78.361 M21.953 78.794 C 21.581 79.204,22.179 79.835,22.604 79.483 C 22.739 79.371,22.783 79.235,22.702 79.181 C 22.621 79.127,22.482 78.949,22.392 78.785 C 22.237 78.500,22.218 78.501,21.953 78.794 M26.167 78.789 C 25.727 78.871,25.507 79.100,25.503 79.479 C 25.501 79.662,25.549 79.667,25.748 79.502 C 25.885 79.388,25.965 79.245,25.926 79.182 C 25.888 79.120,26.012 79.057,26.203 79.043 C 26.394 79.029,26.629 78.938,26.725 78.842 C 26.905 78.661,26.873 78.658,26.167 78.789 M6.532 79.403 C 6.788 79.897,6.802 79.900,6.775 79.455 C 6.761 79.235,6.660 79.056,6.551 79.056 C 6.402 79.056,6.397 79.144,6.532 79.403 M26.595 79.481 C 26.545 79.562,26.615 79.721,26.750 79.833 C 26.885 79.946,26.953 80.108,26.900 80.194 C 26.762 80.417,26.313 80.004,26.443 79.773 C 26.511 79.651,26.471 79.655,26.332 79.785 C 26.153 79.950,26.156 80.039,26.349 80.285 C 26.563 80.557,26.558 80.563,26.292 80.355 C 25.951 80.087,25.920 79.813,26.200 79.533 C 26.432 79.302,26.730 79.262,26.595 79.481 M7.013 80.200 C 7.006 80.356,6.869 80.560,6.708 80.653 C 6.432 80.814,6.432 80.823,6.714 80.828 C 7.039 80.834,7.248 80.468,7.112 80.130 C 7.057 79.993,7.022 80.018,7.013 80.200 M7.727 80.370 C 7.777 80.527,7.753 80.697,7.672 80.747 C 7.591 80.797,7.487 80.705,7.441 80.544 C 7.395 80.382,7.370 80.466,7.387 80.731 C 7.406 81.036,7.567 81.311,7.826 81.481 C 8.067 81.639,8.183 81.664,8.108 81.542 C 8.037 81.426,8.059 81.333,8.157 81.333 C 8.254 81.333,8.333 81.254,8.333 81.157 C 8.333 81.060,8.258 81.027,8.167 81.083 C 8.074 81.141,8.001 81.016,8.003 80.802 C 8.005 80.484,8.036 80.460,8.182 80.667 C 8.299 80.832,8.339 80.842,8.300 80.696 C 8.268 80.574,8.177 80.487,8.098 80.502 C 8.019 80.516,7.882 80.428,7.795 80.306 C 7.674 80.138,7.658 80.154,7.727 80.370 M8.292 81.694 C 8.131 81.862,8.000 82.085,8.000 82.189 C 8.000 82.293,8.159 82.177,8.352 81.930 C 8.762 81.410,8.719 81.246,8.292 81.694 M25.208 81.672 C 25.002 81.755,24.827 81.956,24.820 82.120 C 24.812 82.304,24.774 82.335,24.721 82.203 C 24.608 81.921,24.969 81.497,25.312 81.511 C 25.496 81.518,25.462 81.570,25.208 81.672 M11.276 82.332 C 11.370 82.703,11.352 82.723,11.107 82.520 C 10.903 82.351,10.776 82.340,10.610 82.478 C 10.487 82.580,10.337 82.614,10.276 82.554 C 10.216 82.494,10.167 82.561,10.167 82.704 C 10.167 83.121,10.622 83.191,10.726 82.790 C 10.817 82.444,10.826 82.446,11.159 82.870 C 11.576 83.399,11.583 83.499,11.208 83.503 C 10.959 83.505,10.953 83.529,11.167 83.667 C 11.304 83.756,11.342 83.830,11.250 83.833 C 11.158 83.836,11.271 83.937,11.500 84.059 C 11.733 84.182,11.997 84.218,12.099 84.141 C 12.199 84.065,12.324 84.047,12.378 84.100 C 12.431 84.153,12.452 84.059,12.425 83.890 C 12.397 83.721,12.483 83.460,12.615 83.308 C 12.765 83.136,12.792 82.994,12.688 82.930 C 12.596 82.873,12.442 82.959,12.346 83.121 C 12.187 83.392,12.163 83.384,12.064 83.032 C 11.996 82.790,11.869 82.681,11.719 82.739 C 11.562 82.799,11.526 82.760,11.612 82.623 C 11.847 82.247,11.831 81.961,11.586 82.164 C 11.424 82.299,11.340 82.291,11.268 82.132 C 11.214 82.014,11.217 82.104,11.276 82.332 M9.883 83.292 C 9.884 83.836,10.192 84.030,10.434 83.638 C 10.517 83.504,10.461 83.479,10.254 83.559 C 9.988 83.661,9.980 83.641,10.185 83.388 C 10.312 83.231,10.329 83.155,10.221 83.220 C 10.106 83.289,9.996 83.216,9.954 83.044 C 9.914 82.882,9.883 82.994,9.883 83.292 M10.742 83.121 C 10.671 83.284,10.606 83.467,10.598 83.528 C 10.590 83.589,10.527 83.695,10.458 83.764 C 10.175 84.047,10.363 84.283,10.875 84.284 C 11.173 84.284,11.284 84.252,11.123 84.213 C 10.951 84.171,10.878 84.060,10.947 83.946 C 11.011 83.838,10.925 83.862,10.755 84.000 C 10.465 84.234,10.458 84.227,10.641 83.882 C 10.749 83.680,10.954 83.449,11.096 83.370 C 11.320 83.244,11.323 83.199,11.113 83.025 C 10.920 82.865,10.846 82.884,10.742 83.121 M12.153 83.474 C 12.264 83.682,12.260 83.840,12.138 83.962 C 11.891 84.209,11.526 83.853,11.628 83.463 C 11.728 83.081,11.945 83.085,12.153 83.474 " stroke="none" fill="#549cd4" fill-rule="evenodd"></path>
	</g>
</svg>